%TF.GenerationSoftware,KiCad,Pcbnew,10.0.3*%
%TF.CreationDate,2026-05-27T09:44:17-04:00*%
%TF.ProjectId,a2b,6132622e-6b69-4636-9164-5f7063625858,rev?*%
%TF.SameCoordinates,Original*%
%TF.FileFunction,Copper,L2,Bot*%
%TF.FilePolarity,Positive*%
%FSLAX46Y46*%
G04 Gerber Fmt 4.6, Leading zero omitted, Abs format (unit mm)*
G04 Created by KiCad (PCBNEW 10.0.3) date 2026-05-27 09:44:17*
%MOMM*%
%LPD*%
G01*
G04 APERTURE LIST*
%TA.AperFunction,ComponentPad*%
%ADD10C,1.600000*%
%TD*%
%TA.AperFunction,ComponentPad*%
%ADD11R,1.700000X1.700000*%
%TD*%
%TA.AperFunction,ComponentPad*%
%ADD12C,1.700000*%
%TD*%
%TA.AperFunction,ComponentPad*%
%ADD13R,1.600000X1.600000*%
%TD*%
%TA.AperFunction,ComponentPad*%
%ADD14O,1.600000X1.600000*%
%TD*%
%TA.AperFunction,ComponentPad*%
%ADD15O,4.560000X2.280000*%
%TD*%
%TA.AperFunction,ComponentPad*%
%ADD16O,2.025000X4.050000*%
%TD*%
%TA.AperFunction,ComponentPad*%
%ADD17O,4.050000X2.025000*%
%TD*%
%TA.AperFunction,ComponentPad*%
%ADD18C,3.000000*%
%TD*%
%TA.AperFunction,ComponentPad*%
%ADD19R,1.800000X1.800000*%
%TD*%
%TA.AperFunction,ComponentPad*%
%ADD20C,1.800000*%
%TD*%
%TA.AperFunction,Conductor*%
%ADD21C,0.200000*%
%TD*%
G04 APERTURE END LIST*
D10*
%TO.P,R1,1*%
%TO.N,Net-(D1-K)*%
X152095900Y-104140000D03*
%TO.P,R1,2*%
%TO.N,Net-(R1-Pad2)*%
X152095900Y-114300000D03*
%TD*%
D11*
%TO.P,V2,1*%
%TO.N,Net-(D1-A)*%
X124460000Y-129540000D03*
D12*
%TO.P,V2,2*%
%TO.N,Net-(R1-Pad2)*%
X127000000Y-129540000D03*
%TO.P,V2,3*%
%TO.N,Net-(D1-A)*%
X124460000Y-132080000D03*
%TO.P,V2,4*%
%TO.N,Net-(R1-Pad2)*%
X127000000Y-132080000D03*
%TD*%
D13*
%TO.P,SW3,1*%
%TO.N,Net-(DC_IN1-PadSLEEVE)*%
X149860100Y-91440000D03*
D14*
%TO.P,SW3,2*%
%TO.N,Net-(DC_IN1-PadPIN)*%
X147320100Y-91440000D03*
%TO.P,SW3,3*%
%TO.N,Net-(D1-A)*%
X147320100Y-99060000D03*
%TO.P,SW3,4*%
%TO.N,Net-(R1-Pad2)*%
X149860100Y-99060000D03*
%TD*%
D15*
%TO.P,DC_IN1,PIN*%
%TO.N,Net-(DC_IN1-PadPIN)*%
X148590000Y-83185000D03*
D16*
%TO.P,DC_IN1,SHUNT*%
%TO.N,unconnected-(DC_IN1-PadSHUNT)*%
X143790000Y-80185000D03*
D17*
%TO.P,DC_IN1,SLEEVE*%
%TO.N,Net-(DC_IN1-PadSLEEVE)*%
X148590000Y-76935000D03*
%TD*%
D11*
%TO.P,PINOUT4,1*%
%TO.N,Net-(PINOUT2-Pad1)*%
X152400000Y-127000000D03*
D12*
%TO.P,PINOUT4,2*%
%TO.N,/Net-(PINOUT2-Pad2)*%
X152400000Y-129540000D03*
%TO.P,PINOUT4,3*%
%TO.N,/Net-(PINOUT2-Pad3)*%
X152400000Y-132080000D03*
%TD*%
D13*
%TO.P,SW1,1*%
%TO.N,Net-(AUDIO_IN1-PadS)*%
X134098500Y-102052500D03*
D14*
%TO.P,SW1,2*%
%TO.N,Net-(AUDIO_IN1-PadR)*%
X131558500Y-102052500D03*
%TO.P,SW1,3*%
%TO.N,Net-(AUDIO_IN1-PadT)*%
X129018500Y-102052500D03*
%TO.P,SW1,4*%
%TO.N,Net-(PINOUT1-Pad3)*%
X129018500Y-109672500D03*
%TO.P,SW1,5*%
%TO.N,Net-(PINOUT1-Pad2)*%
X131558500Y-109672500D03*
%TO.P,SW1,6*%
%TO.N,Net-(PINOUT1-Pad1)*%
X134098500Y-109672500D03*
%TD*%
D18*
%TO.P,AUDIO_OUT1,R*%
%TO.N,Net-(AUDIO_OUT1-PadR)*%
X157748500Y-82545000D03*
%TO.P,AUDIO_OUT1,RN*%
%TO.N,unconnected-(AUDIO_OUT1-PadRN)*%
X173978500Y-82545000D03*
%TO.P,AUDIO_OUT1,S*%
%TO.N,Net-(AUDIO_OUT1-PadS)*%
X157748500Y-76195000D03*
%TO.P,AUDIO_OUT1,SN*%
%TO.N,unconnected-(AUDIO_OUT1-PadSN)*%
X173978500Y-76195000D03*
%TO.P,AUDIO_OUT1,T*%
%TO.N,Net-(AUDIO_OUT1-PadT)*%
X157748500Y-88895000D03*
%TO.P,AUDIO_OUT1,TN*%
%TO.N,unconnected-(AUDIO_OUT1-PadTN)*%
X173978500Y-88895000D03*
%TD*%
D11*
%TO.P,PINOUT1,1*%
%TO.N,Net-(PINOUT1-Pad1)*%
X134113500Y-118745000D03*
D12*
%TO.P,PINOUT1,2*%
%TO.N,Net-(PINOUT1-Pad2)*%
X131573500Y-118745000D03*
%TO.P,PINOUT1,3*%
%TO.N,Net-(PINOUT1-Pad3)*%
X129033500Y-118745000D03*
%TD*%
D11*
%TO.P,V1,1*%
%TO.N,Net-(R1-Pad2)*%
X149860000Y-118745000D03*
D12*
%TO.P,V1,2*%
%TO.N,Net-(D1-A)*%
X147320000Y-118745000D03*
%TD*%
D18*
%TO.P,AUDIO_IN1,R*%
%TO.N,Net-(AUDIO_IN1-PadR)*%
X123458500Y-82545000D03*
%TO.P,AUDIO_IN1,RN*%
%TO.N,unconnected-(AUDIO_IN1-PadRN)*%
X139688500Y-82545000D03*
%TO.P,AUDIO_IN1,S*%
%TO.N,Net-(AUDIO_IN1-PadS)*%
X123458500Y-76195000D03*
%TO.P,AUDIO_IN1,SN*%
%TO.N,unconnected-(AUDIO_IN1-PadSN)*%
X139688500Y-76195000D03*
%TO.P,AUDIO_IN1,T*%
%TO.N,Net-(AUDIO_IN1-PadT)*%
X123458500Y-88895000D03*
%TO.P,AUDIO_IN1,TN*%
%TO.N,unconnected-(AUDIO_IN1-PadTN)*%
X139688500Y-88895000D03*
%TD*%
D11*
%TO.P,V3,1*%
%TO.N,Net-(D1-A)*%
X170180000Y-129540000D03*
D12*
%TO.P,V3,2*%
%TO.N,Net-(R1-Pad2)*%
X172720000Y-129540000D03*
%TO.P,V3,3*%
%TO.N,Net-(D1-A)*%
X170180000Y-132080000D03*
%TO.P,V3,4*%
%TO.N,Net-(R1-Pad2)*%
X172720000Y-132080000D03*
%TD*%
D11*
%TO.P,PINOUT2,1*%
%TO.N,Net-(PINOUT2-Pad1)*%
X168403500Y-118745000D03*
D12*
%TO.P,PINOUT2,2*%
%TO.N,/Net-(PINOUT2-Pad2)*%
X165863500Y-118745000D03*
%TO.P,PINOUT2,3*%
%TO.N,/Net-(PINOUT2-Pad3)*%
X163323500Y-118745000D03*
%TD*%
D13*
%TO.P,SW2,1*%
%TO.N,Net-(AUDIO_OUT1-PadS)*%
X168388500Y-102052500D03*
D14*
%TO.P,SW2,2*%
%TO.N,Net-(AUDIO_OUT1-PadR)*%
X165848500Y-102052500D03*
%TO.P,SW2,3*%
%TO.N,Net-(AUDIO_OUT1-PadT)*%
X163308500Y-102052500D03*
%TO.P,SW2,4*%
%TO.N,/Net-(PINOUT2-Pad3)*%
X163308500Y-109672500D03*
%TO.P,SW2,5*%
%TO.N,/Net-(PINOUT2-Pad2)*%
X165848500Y-109672500D03*
%TO.P,SW2,6*%
%TO.N,Net-(PINOUT2-Pad1)*%
X168388500Y-109672500D03*
%TD*%
D19*
%TO.P,D1,1,K_1*%
%TO.N,Net-(D1-K)*%
X147015900Y-109220000D03*
D20*
%TO.P,D1,2,A_2*%
%TO.N,Net-(D1-A)*%
X144475900Y-109220000D03*
%TD*%
D11*
%TO.P,PINOUT3,1*%
%TO.N,Net-(PINOUT1-Pad1)*%
X144780000Y-127000000D03*
D12*
%TO.P,PINOUT3,2*%
%TO.N,Net-(PINOUT1-Pad2)*%
X144780000Y-129540000D03*
%TO.P,PINOUT3,3*%
%TO.N,Net-(PINOUT1-Pad3)*%
X144780000Y-132080000D03*
%TD*%
%TO.N,Net-(D1-K)*%
D21*
X148217600Y-108018300D02*
X152095900Y-104140000D01*
X148217600Y-109220000D02*
X148217600Y-108018300D01*
X147015900Y-109220000D02*
X148217600Y-109220000D01*
%TO.N,Net-(R1-Pad2)*%
X166692500Y-114300000D02*
X152095900Y-114300000D01*
X172720000Y-129540000D02*
X172720000Y-120327500D01*
X125730000Y-130810000D02*
X127000000Y-132080000D01*
X172720000Y-120327500D02*
X166692500Y-114300000D01*
X123567600Y-130810000D02*
X125730000Y-130810000D01*
X123308300Y-122798500D02*
X123308300Y-130550700D01*
X131806800Y-114300000D02*
X123308300Y-122798500D01*
X123308300Y-130550700D02*
X123567600Y-130810000D01*
X152095900Y-114300000D02*
X131806800Y-114300000D01*
%TO.N,Net-(D1-A)*%
X149515600Y-116549400D02*
X168373900Y-116549400D01*
X146134600Y-117559600D02*
X131061500Y-117559600D01*
X147320000Y-118745000D02*
X149515600Y-116549400D01*
X131061500Y-117559600D02*
X130303500Y-118317600D01*
X147320000Y-118745000D02*
X146134600Y-117559600D01*
X124460000Y-129540000D02*
X124460000Y-128388300D01*
X130303500Y-118317600D02*
X130303500Y-122544800D01*
X168373900Y-116549400D02*
X169895100Y-118070600D01*
X130303500Y-122544800D02*
X124460000Y-128388300D01*
X169895100Y-118070600D02*
X169895100Y-128103400D01*
X169895100Y-128103400D02*
X170180000Y-128388300D01*
X170180000Y-129540000D02*
X170180000Y-128388300D01*
%TO.N,Net-(PINOUT2-Pad1)*%
X153551700Y-124698300D02*
X153551700Y-127000000D01*
X167251800Y-119033000D02*
X165986400Y-120298400D01*
X168403500Y-118745000D02*
X167251800Y-118745000D01*
X157951600Y-120298400D02*
X153551700Y-124698300D01*
X167251800Y-118745000D02*
X167251800Y-119033000D01*
X165986400Y-120298400D02*
X157951600Y-120298400D01*
X153551700Y-127000000D02*
X152400000Y-127000000D01*
%TO.N,/Net-(PINOUT2-Pad2)*%
X151248300Y-128388300D02*
X152400000Y-129540000D01*
X157370600Y-119896700D02*
X151248300Y-126019000D01*
X151248300Y-126019000D02*
X151248300Y-128388300D01*
X164711800Y-119896700D02*
X157370600Y-119896700D01*
X165863500Y-118745000D02*
X164711800Y-119896700D01*
%TO.N,Net-(PINOUT1-Pad2)*%
X142961300Y-124141300D02*
X136969800Y-124141300D01*
X136969800Y-124141300D02*
X131573500Y-118745000D01*
X143630000Y-124810000D02*
X142961300Y-124141300D01*
X144780000Y-129540000D02*
X143630000Y-128390000D01*
X143630000Y-128390000D02*
X143630000Y-124810000D01*
%TO.N,Net-(PINOUT1-Pad1)*%
X134113500Y-118745000D02*
X139145000Y-118745000D01*
X139145000Y-118745000D02*
X144780000Y-124380000D01*
X144780000Y-124380000D02*
X144780000Y-127000000D01*
%TD*%
M02*
