M48
; DRILL file KiCad 10.0.3 date 2026-06-15T11:18:26
; FORMAT={-:-/ absolute / metric / decimal}
; #@! TF.CreationDate,2026-06-15T11:18:26-04:00
; #@! TF.GenerationSoftware,Kicad,Pcbnew,10.0.3
; #@! TF.FileFunction,Plated,1,2,PTH
FMAT,2
METRIC
; #@! TA.AperFunction,Plated,PTH,ComponentDrill
T1C0.760
; #@! TA.AperFunction,Plated,PTH,ComponentDrill
T2C0.800
; #@! TA.AperFunction,Plated,PTH,ComponentDrill
T3C0.900
; #@! TA.AperFunction,Plated,PTH,ComponentDrill
T4C1.000
; #@! TA.AperFunction,Plated,PTH,ComponentDrill
T5C1.020
; #@! TA.AperFunction,Plated,PTH,ComponentDrill
T6C1.400
%
G90
G05
T2
X129.018Y-102.052
X129.018Y-109.672
X131.558Y-102.052
X131.558Y-109.672
X134.099Y-102.052
X134.099Y-109.672
X147.32Y-91.44
X147.32Y-99.06
X148.615Y-104.248
X148.615Y-114.408
X149.86Y-91.44
X149.86Y-99.06
X163.308Y-102.052
X163.308Y-109.672
X165.849Y-102.052
X165.849Y-109.672
X168.388Y-102.052
X168.388Y-109.672
T3
X140.995Y-109.328
X143.535Y-109.328
X154.201Y-109.328
X156.74Y-109.328
T4
X124.46Y-129.54
X124.46Y-132.08
X127.0Y-129.54
X127.0Y-132.08
X129.034Y-118.745
X131.573Y-118.745
X134.113Y-118.745
X144.78Y-127.0
X144.78Y-129.54
X144.78Y-132.08
X147.32Y-118.745
X149.86Y-118.745
X152.4Y-127.0
X152.4Y-129.54
X152.4Y-132.08
X163.323Y-118.745
X165.863Y-118.745
X168.403Y-118.745
X170.18Y-129.54
X170.18Y-132.08
X172.72Y-129.54
X172.72Y-132.08
T6
X123.459Y-76.195
X123.459Y-82.545
X123.459Y-88.895
X139.689Y-76.195
X139.689Y-82.545
X139.689Y-88.895
X157.749Y-76.195
X157.749Y-82.545
X157.749Y-88.895
X173.978Y-76.195
X173.978Y-82.545
X173.978Y-88.895
T1
G00X143.79Y-81.33
M15
G01X143.79Y-79.04
M16
G05
G00X149.735Y-76.935
M15
G01X147.445Y-76.935
M16
G05
T5
G00X149.86Y-83.185
M15
G01X147.32Y-83.185
M16
G05
M30
