%TF.GenerationSoftware,KiCad,Pcbnew,10.0.3*%
%TF.CreationDate,2026-05-27T09:44:17-04:00*%
%TF.ProjectId,a2b,6132622e-6b69-4636-9164-5f7063625858,rev?*%
%TF.SameCoordinates,Original*%
%TF.FileFunction,Legend,Top*%
%TF.FilePolarity,Positive*%
%FSLAX46Y46*%
G04 Gerber Fmt 4.6, Leading zero omitted, Abs format (unit mm)*
G04 Created by KiCad (PCBNEW 10.0.3) date 2026-05-27 09:44:17*
%MOMM*%
%LPD*%
G01*
G04 APERTURE LIST*
%ADD10C,0.100000*%
%ADD11C,0.150000*%
%ADD12C,0.120000*%
%ADD13C,0.127000*%
G04 APERTURE END LIST*
D10*
X123940209Y-102421919D02*
X123844971Y-102374300D01*
X123844971Y-102374300D02*
X123797352Y-102326680D01*
X123797352Y-102326680D02*
X123749733Y-102231442D01*
X123749733Y-102231442D02*
X123749733Y-101945728D01*
X123749733Y-101945728D02*
X123797352Y-101850490D01*
X123797352Y-101850490D02*
X123844971Y-101802871D01*
X123844971Y-101802871D02*
X123940209Y-101755252D01*
X123940209Y-101755252D02*
X124083066Y-101755252D01*
X124083066Y-101755252D02*
X124178304Y-101802871D01*
X124178304Y-101802871D02*
X124225923Y-101850490D01*
X124225923Y-101850490D02*
X124273542Y-101945728D01*
X124273542Y-101945728D02*
X124273542Y-102231442D01*
X124273542Y-102231442D02*
X124225923Y-102326680D01*
X124225923Y-102326680D02*
X124178304Y-102374300D01*
X124178304Y-102374300D02*
X124083066Y-102421919D01*
X124083066Y-102421919D02*
X123940209Y-102421919D01*
X124559257Y-101755252D02*
X124940209Y-101755252D01*
X124702114Y-102421919D02*
X124702114Y-101564776D01*
X124702114Y-101564776D02*
X124749733Y-101469538D01*
X124749733Y-101469538D02*
X124844971Y-101421919D01*
X124844971Y-101421919D02*
X124940209Y-101421919D01*
X125130686Y-101755252D02*
X125511638Y-101755252D01*
X125273543Y-102421919D02*
X125273543Y-101564776D01*
X125273543Y-101564776D02*
X125321162Y-101469538D01*
X125321162Y-101469538D02*
X125416400Y-101421919D01*
X125416400Y-101421919D02*
X125511638Y-101421919D01*
X124059257Y-110041919D02*
X123964019Y-109994300D01*
X123964019Y-109994300D02*
X123916400Y-109946680D01*
X123916400Y-109946680D02*
X123868781Y-109851442D01*
X123868781Y-109851442D02*
X123868781Y-109565728D01*
X123868781Y-109565728D02*
X123916400Y-109470490D01*
X123916400Y-109470490D02*
X123964019Y-109422871D01*
X123964019Y-109422871D02*
X124059257Y-109375252D01*
X124059257Y-109375252D02*
X124202114Y-109375252D01*
X124202114Y-109375252D02*
X124297352Y-109422871D01*
X124297352Y-109422871D02*
X124344971Y-109470490D01*
X124344971Y-109470490D02*
X124392590Y-109565728D01*
X124392590Y-109565728D02*
X124392590Y-109851442D01*
X124392590Y-109851442D02*
X124344971Y-109946680D01*
X124344971Y-109946680D02*
X124297352Y-109994300D01*
X124297352Y-109994300D02*
X124202114Y-110041919D01*
X124202114Y-110041919D02*
X124059257Y-110041919D01*
X124821162Y-109375252D02*
X124821162Y-110041919D01*
X124821162Y-109470490D02*
X124868781Y-109422871D01*
X124868781Y-109422871D02*
X124964019Y-109375252D01*
X124964019Y-109375252D02*
X125106876Y-109375252D01*
X125106876Y-109375252D02*
X125202114Y-109422871D01*
X125202114Y-109422871D02*
X125249733Y-109518109D01*
X125249733Y-109518109D02*
X125249733Y-110041919D01*
X142562812Y-91947419D02*
X142467574Y-91899800D01*
X142467574Y-91899800D02*
X142419955Y-91852180D01*
X142419955Y-91852180D02*
X142372336Y-91756942D01*
X142372336Y-91756942D02*
X142372336Y-91471228D01*
X142372336Y-91471228D02*
X142419955Y-91375990D01*
X142419955Y-91375990D02*
X142467574Y-91328371D01*
X142467574Y-91328371D02*
X142562812Y-91280752D01*
X142562812Y-91280752D02*
X142705669Y-91280752D01*
X142705669Y-91280752D02*
X142800907Y-91328371D01*
X142800907Y-91328371D02*
X142848526Y-91375990D01*
X142848526Y-91375990D02*
X142896145Y-91471228D01*
X142896145Y-91471228D02*
X142896145Y-91756942D01*
X142896145Y-91756942D02*
X142848526Y-91852180D01*
X142848526Y-91852180D02*
X142800907Y-91899800D01*
X142800907Y-91899800D02*
X142705669Y-91947419D01*
X142705669Y-91947419D02*
X142562812Y-91947419D01*
X143181860Y-91280752D02*
X143562812Y-91280752D01*
X143324717Y-91947419D02*
X143324717Y-91090276D01*
X143324717Y-91090276D02*
X143372336Y-90995038D01*
X143372336Y-90995038D02*
X143467574Y-90947419D01*
X143467574Y-90947419D02*
X143562812Y-90947419D01*
X143753289Y-91280752D02*
X144134241Y-91280752D01*
X143896146Y-91947419D02*
X143896146Y-91090276D01*
X143896146Y-91090276D02*
X143943765Y-90995038D01*
X143943765Y-90995038D02*
X144039003Y-90947419D01*
X144039003Y-90947419D02*
X144134241Y-90947419D01*
X142681860Y-99567419D02*
X142586622Y-99519800D01*
X142586622Y-99519800D02*
X142539003Y-99472180D01*
X142539003Y-99472180D02*
X142491384Y-99376942D01*
X142491384Y-99376942D02*
X142491384Y-99091228D01*
X142491384Y-99091228D02*
X142539003Y-98995990D01*
X142539003Y-98995990D02*
X142586622Y-98948371D01*
X142586622Y-98948371D02*
X142681860Y-98900752D01*
X142681860Y-98900752D02*
X142824717Y-98900752D01*
X142824717Y-98900752D02*
X142919955Y-98948371D01*
X142919955Y-98948371D02*
X142967574Y-98995990D01*
X142967574Y-98995990D02*
X143015193Y-99091228D01*
X143015193Y-99091228D02*
X143015193Y-99376942D01*
X143015193Y-99376942D02*
X142967574Y-99472180D01*
X142967574Y-99472180D02*
X142919955Y-99519800D01*
X142919955Y-99519800D02*
X142824717Y-99567419D01*
X142824717Y-99567419D02*
X142681860Y-99567419D01*
X143443765Y-98900752D02*
X143443765Y-99567419D01*
X143443765Y-98995990D02*
X143491384Y-98948371D01*
X143491384Y-98948371D02*
X143586622Y-98900752D01*
X143586622Y-98900752D02*
X143729479Y-98900752D01*
X143729479Y-98900752D02*
X143824717Y-98948371D01*
X143824717Y-98948371D02*
X143872336Y-99043609D01*
X143872336Y-99043609D02*
X143872336Y-99567419D01*
X172420209Y-102421919D02*
X172324971Y-102374300D01*
X172324971Y-102374300D02*
X172277352Y-102326680D01*
X172277352Y-102326680D02*
X172229733Y-102231442D01*
X172229733Y-102231442D02*
X172229733Y-101945728D01*
X172229733Y-101945728D02*
X172277352Y-101850490D01*
X172277352Y-101850490D02*
X172324971Y-101802871D01*
X172324971Y-101802871D02*
X172420209Y-101755252D01*
X172420209Y-101755252D02*
X172563066Y-101755252D01*
X172563066Y-101755252D02*
X172658304Y-101802871D01*
X172658304Y-101802871D02*
X172705923Y-101850490D01*
X172705923Y-101850490D02*
X172753542Y-101945728D01*
X172753542Y-101945728D02*
X172753542Y-102231442D01*
X172753542Y-102231442D02*
X172705923Y-102326680D01*
X172705923Y-102326680D02*
X172658304Y-102374300D01*
X172658304Y-102374300D02*
X172563066Y-102421919D01*
X172563066Y-102421919D02*
X172420209Y-102421919D01*
X173039257Y-101755252D02*
X173420209Y-101755252D01*
X173182114Y-102421919D02*
X173182114Y-101564776D01*
X173182114Y-101564776D02*
X173229733Y-101469538D01*
X173229733Y-101469538D02*
X173324971Y-101421919D01*
X173324971Y-101421919D02*
X173420209Y-101421919D01*
X173610686Y-101755252D02*
X173991638Y-101755252D01*
X173753543Y-102421919D02*
X173753543Y-101564776D01*
X173753543Y-101564776D02*
X173801162Y-101469538D01*
X173801162Y-101469538D02*
X173896400Y-101421919D01*
X173896400Y-101421919D02*
X173991638Y-101421919D01*
X172539257Y-110041919D02*
X172444019Y-109994300D01*
X172444019Y-109994300D02*
X172396400Y-109946680D01*
X172396400Y-109946680D02*
X172348781Y-109851442D01*
X172348781Y-109851442D02*
X172348781Y-109565728D01*
X172348781Y-109565728D02*
X172396400Y-109470490D01*
X172396400Y-109470490D02*
X172444019Y-109422871D01*
X172444019Y-109422871D02*
X172539257Y-109375252D01*
X172539257Y-109375252D02*
X172682114Y-109375252D01*
X172682114Y-109375252D02*
X172777352Y-109422871D01*
X172777352Y-109422871D02*
X172824971Y-109470490D01*
X172824971Y-109470490D02*
X172872590Y-109565728D01*
X172872590Y-109565728D02*
X172872590Y-109851442D01*
X172872590Y-109851442D02*
X172824971Y-109946680D01*
X172824971Y-109946680D02*
X172777352Y-109994300D01*
X172777352Y-109994300D02*
X172682114Y-110041919D01*
X172682114Y-110041919D02*
X172539257Y-110041919D01*
X173301162Y-109375252D02*
X173301162Y-110041919D01*
X173301162Y-109470490D02*
X173348781Y-109422871D01*
X173348781Y-109422871D02*
X173444019Y-109375252D01*
X173444019Y-109375252D02*
X173586876Y-109375252D01*
X173586876Y-109375252D02*
X173682114Y-109422871D01*
X173682114Y-109422871D02*
X173729733Y-109518109D01*
X173729733Y-109518109D02*
X173729733Y-110041919D01*
X120160818Y-76896372D02*
X120303675Y-76943991D01*
X120303675Y-76943991D02*
X120541770Y-76943991D01*
X120541770Y-76943991D02*
X120637008Y-76896372D01*
X120637008Y-76896372D02*
X120684627Y-76848752D01*
X120684627Y-76848752D02*
X120732246Y-76753514D01*
X120732246Y-76753514D02*
X120732246Y-76658276D01*
X120732246Y-76658276D02*
X120684627Y-76563038D01*
X120684627Y-76563038D02*
X120637008Y-76515419D01*
X120637008Y-76515419D02*
X120541770Y-76467800D01*
X120541770Y-76467800D02*
X120351294Y-76420181D01*
X120351294Y-76420181D02*
X120256056Y-76372562D01*
X120256056Y-76372562D02*
X120208437Y-76324943D01*
X120208437Y-76324943D02*
X120160818Y-76229705D01*
X120160818Y-76229705D02*
X120160818Y-76134467D01*
X120160818Y-76134467D02*
X120208437Y-76039229D01*
X120208437Y-76039229D02*
X120256056Y-75991610D01*
X120256056Y-75991610D02*
X120351294Y-75943991D01*
X120351294Y-75943991D02*
X120589389Y-75943991D01*
X120589389Y-75943991D02*
X120732246Y-75991610D01*
X120756055Y-83343307D02*
X120422722Y-82867116D01*
X120184627Y-83343307D02*
X120184627Y-82343307D01*
X120184627Y-82343307D02*
X120565579Y-82343307D01*
X120565579Y-82343307D02*
X120660817Y-82390926D01*
X120660817Y-82390926D02*
X120708436Y-82438545D01*
X120708436Y-82438545D02*
X120756055Y-82533783D01*
X120756055Y-82533783D02*
X120756055Y-82676640D01*
X120756055Y-82676640D02*
X120708436Y-82771878D01*
X120708436Y-82771878D02*
X120660817Y-82819497D01*
X120660817Y-82819497D02*
X120565579Y-82867116D01*
X120565579Y-82867116D02*
X120184627Y-82867116D01*
X120160818Y-88625464D02*
X120732246Y-88625464D01*
X120446532Y-89625464D02*
X120446532Y-88625464D01*
X125163571Y-126187419D02*
X125354047Y-126187419D01*
X125354047Y-126187419D02*
X125449285Y-126139800D01*
X125449285Y-126139800D02*
X125496904Y-126092180D01*
X125496904Y-126092180D02*
X125592142Y-125949323D01*
X125592142Y-125949323D02*
X125639761Y-125758847D01*
X125639761Y-125758847D02*
X125639761Y-125377895D01*
X125639761Y-125377895D02*
X125592142Y-125282657D01*
X125592142Y-125282657D02*
X125544523Y-125235038D01*
X125544523Y-125235038D02*
X125449285Y-125187419D01*
X125449285Y-125187419D02*
X125258809Y-125187419D01*
X125258809Y-125187419D02*
X125163571Y-125235038D01*
X125163571Y-125235038D02*
X125115952Y-125282657D01*
X125115952Y-125282657D02*
X125068333Y-125377895D01*
X125068333Y-125377895D02*
X125068333Y-125615990D01*
X125068333Y-125615990D02*
X125115952Y-125711228D01*
X125115952Y-125711228D02*
X125163571Y-125758847D01*
X125163571Y-125758847D02*
X125258809Y-125806466D01*
X125258809Y-125806466D02*
X125449285Y-125806466D01*
X125449285Y-125806466D02*
X125544523Y-125758847D01*
X125544523Y-125758847D02*
X125592142Y-125711228D01*
X125592142Y-125711228D02*
X125639761Y-125615990D01*
X125973095Y-125520752D02*
X126211190Y-126187419D01*
X126211190Y-126187419D02*
X126449285Y-125520752D01*
X128743032Y-113828014D02*
X129314460Y-113828014D01*
X129028746Y-114828014D02*
X129028746Y-113828014D01*
X131878269Y-114828014D02*
X131544936Y-114351823D01*
X131306841Y-114828014D02*
X131306841Y-113828014D01*
X131306841Y-113828014D02*
X131687793Y-113828014D01*
X131687793Y-113828014D02*
X131783031Y-113875633D01*
X131783031Y-113875633D02*
X131830650Y-113923252D01*
X131830650Y-113923252D02*
X131878269Y-114018490D01*
X131878269Y-114018490D02*
X131878269Y-114161347D01*
X131878269Y-114161347D02*
X131830650Y-114256585D01*
X131830650Y-114256585D02*
X131783031Y-114304204D01*
X131783031Y-114304204D02*
X131687793Y-114351823D01*
X131687793Y-114351823D02*
X131306841Y-114351823D01*
X133823032Y-114780395D02*
X133965889Y-114828014D01*
X133965889Y-114828014D02*
X134203984Y-114828014D01*
X134203984Y-114828014D02*
X134299222Y-114780395D01*
X134299222Y-114780395D02*
X134346841Y-114732775D01*
X134346841Y-114732775D02*
X134394460Y-114637537D01*
X134394460Y-114637537D02*
X134394460Y-114542299D01*
X134394460Y-114542299D02*
X134346841Y-114447061D01*
X134346841Y-114447061D02*
X134299222Y-114399442D01*
X134299222Y-114399442D02*
X134203984Y-114351823D01*
X134203984Y-114351823D02*
X134013508Y-114304204D01*
X134013508Y-114304204D02*
X133918270Y-114256585D01*
X133918270Y-114256585D02*
X133870651Y-114208966D01*
X133870651Y-114208966D02*
X133823032Y-114113728D01*
X133823032Y-114113728D02*
X133823032Y-114018490D01*
X133823032Y-114018490D02*
X133870651Y-113923252D01*
X133870651Y-113923252D02*
X133918270Y-113875633D01*
X133918270Y-113875633D02*
X134013508Y-113828014D01*
X134013508Y-113828014D02*
X134251603Y-113828014D01*
X134251603Y-113828014D02*
X134394460Y-113875633D01*
X147034286Y-127409800D02*
X147177143Y-127457419D01*
X147177143Y-127457419D02*
X147415238Y-127457419D01*
X147415238Y-127457419D02*
X147510476Y-127409800D01*
X147510476Y-127409800D02*
X147558095Y-127362180D01*
X147558095Y-127362180D02*
X147605714Y-127266942D01*
X147605714Y-127266942D02*
X147605714Y-127171704D01*
X147605714Y-127171704D02*
X147558095Y-127076466D01*
X147558095Y-127076466D02*
X147510476Y-127028847D01*
X147510476Y-127028847D02*
X147415238Y-126981228D01*
X147415238Y-126981228D02*
X147224762Y-126933609D01*
X147224762Y-126933609D02*
X147129524Y-126885990D01*
X147129524Y-126885990D02*
X147081905Y-126838371D01*
X147081905Y-126838371D02*
X147034286Y-126743133D01*
X147034286Y-126743133D02*
X147034286Y-126647895D01*
X147034286Y-126647895D02*
X147081905Y-126552657D01*
X147081905Y-126552657D02*
X147129524Y-126505038D01*
X147129524Y-126505038D02*
X147224762Y-126457419D01*
X147224762Y-126457419D02*
X147462857Y-126457419D01*
X147462857Y-126457419D02*
X147605714Y-126505038D01*
X147629523Y-129997419D02*
X147296190Y-129521228D01*
X147058095Y-129997419D02*
X147058095Y-128997419D01*
X147058095Y-128997419D02*
X147439047Y-128997419D01*
X147439047Y-128997419D02*
X147534285Y-129045038D01*
X147534285Y-129045038D02*
X147581904Y-129092657D01*
X147581904Y-129092657D02*
X147629523Y-129187895D01*
X147629523Y-129187895D02*
X147629523Y-129330752D01*
X147629523Y-129330752D02*
X147581904Y-129425990D01*
X147581904Y-129425990D02*
X147534285Y-129473609D01*
X147534285Y-129473609D02*
X147439047Y-129521228D01*
X147439047Y-129521228D02*
X147058095Y-129521228D01*
X147034286Y-131537419D02*
X147605714Y-131537419D01*
X147320000Y-132537419D02*
X147320000Y-131537419D01*
X148018571Y-116662419D02*
X148209047Y-116662419D01*
X148209047Y-116662419D02*
X148304285Y-116614800D01*
X148304285Y-116614800D02*
X148351904Y-116567180D01*
X148351904Y-116567180D02*
X148447142Y-116424323D01*
X148447142Y-116424323D02*
X148494761Y-116233847D01*
X148494761Y-116233847D02*
X148494761Y-115852895D01*
X148494761Y-115852895D02*
X148447142Y-115757657D01*
X148447142Y-115757657D02*
X148399523Y-115710038D01*
X148399523Y-115710038D02*
X148304285Y-115662419D01*
X148304285Y-115662419D02*
X148113809Y-115662419D01*
X148113809Y-115662419D02*
X148018571Y-115710038D01*
X148018571Y-115710038D02*
X147970952Y-115757657D01*
X147970952Y-115757657D02*
X147923333Y-115852895D01*
X147923333Y-115852895D02*
X147923333Y-116090990D01*
X147923333Y-116090990D02*
X147970952Y-116186228D01*
X147970952Y-116186228D02*
X148018571Y-116233847D01*
X148018571Y-116233847D02*
X148113809Y-116281466D01*
X148113809Y-116281466D02*
X148304285Y-116281466D01*
X148304285Y-116281466D02*
X148399523Y-116233847D01*
X148399523Y-116233847D02*
X148447142Y-116186228D01*
X148447142Y-116186228D02*
X148494761Y-116090990D01*
X148828095Y-115995752D02*
X149066190Y-116662419D01*
X149066190Y-116662419D02*
X149304285Y-115995752D01*
X148319821Y-88187419D02*
X148510297Y-88187419D01*
X148510297Y-88187419D02*
X148605535Y-88139800D01*
X148605535Y-88139800D02*
X148653154Y-88092180D01*
X148653154Y-88092180D02*
X148748392Y-87949323D01*
X148748392Y-87949323D02*
X148796011Y-87758847D01*
X148796011Y-87758847D02*
X148796011Y-87377895D01*
X148796011Y-87377895D02*
X148748392Y-87282657D01*
X148748392Y-87282657D02*
X148700773Y-87235038D01*
X148700773Y-87235038D02*
X148605535Y-87187419D01*
X148605535Y-87187419D02*
X148415059Y-87187419D01*
X148415059Y-87187419D02*
X148319821Y-87235038D01*
X148319821Y-87235038D02*
X148272202Y-87282657D01*
X148272202Y-87282657D02*
X148224583Y-87377895D01*
X148224583Y-87377895D02*
X148224583Y-87615990D01*
X148224583Y-87615990D02*
X148272202Y-87711228D01*
X148272202Y-87711228D02*
X148319821Y-87758847D01*
X148319821Y-87758847D02*
X148415059Y-87806466D01*
X148415059Y-87806466D02*
X148605535Y-87806466D01*
X148605535Y-87806466D02*
X148700773Y-87758847D01*
X148700773Y-87758847D02*
X148748392Y-87711228D01*
X148748392Y-87711228D02*
X148796011Y-87615990D01*
X149129345Y-87520752D02*
X149367440Y-88187419D01*
X149367440Y-88187419D02*
X149605535Y-87520752D01*
X149574286Y-127409800D02*
X149717143Y-127457419D01*
X149717143Y-127457419D02*
X149955238Y-127457419D01*
X149955238Y-127457419D02*
X150050476Y-127409800D01*
X150050476Y-127409800D02*
X150098095Y-127362180D01*
X150098095Y-127362180D02*
X150145714Y-127266942D01*
X150145714Y-127266942D02*
X150145714Y-127171704D01*
X150145714Y-127171704D02*
X150098095Y-127076466D01*
X150098095Y-127076466D02*
X150050476Y-127028847D01*
X150050476Y-127028847D02*
X149955238Y-126981228D01*
X149955238Y-126981228D02*
X149764762Y-126933609D01*
X149764762Y-126933609D02*
X149669524Y-126885990D01*
X149669524Y-126885990D02*
X149621905Y-126838371D01*
X149621905Y-126838371D02*
X149574286Y-126743133D01*
X149574286Y-126743133D02*
X149574286Y-126647895D01*
X149574286Y-126647895D02*
X149621905Y-126552657D01*
X149621905Y-126552657D02*
X149669524Y-126505038D01*
X149669524Y-126505038D02*
X149764762Y-126457419D01*
X149764762Y-126457419D02*
X150002857Y-126457419D01*
X150002857Y-126457419D02*
X150145714Y-126505038D01*
X150169523Y-129997419D02*
X149836190Y-129521228D01*
X149598095Y-129997419D02*
X149598095Y-128997419D01*
X149598095Y-128997419D02*
X149979047Y-128997419D01*
X149979047Y-128997419D02*
X150074285Y-129045038D01*
X150074285Y-129045038D02*
X150121904Y-129092657D01*
X150121904Y-129092657D02*
X150169523Y-129187895D01*
X150169523Y-129187895D02*
X150169523Y-129330752D01*
X150169523Y-129330752D02*
X150121904Y-129425990D01*
X150121904Y-129425990D02*
X150074285Y-129473609D01*
X150074285Y-129473609D02*
X149979047Y-129521228D01*
X149979047Y-129521228D02*
X149598095Y-129521228D01*
X149574286Y-131537419D02*
X150145714Y-131537419D01*
X149860000Y-132537419D02*
X149860000Y-131537419D01*
X154782754Y-77077792D02*
X154925611Y-77125411D01*
X154925611Y-77125411D02*
X155163706Y-77125411D01*
X155163706Y-77125411D02*
X155258944Y-77077792D01*
X155258944Y-77077792D02*
X155306563Y-77030172D01*
X155306563Y-77030172D02*
X155354182Y-76934934D01*
X155354182Y-76934934D02*
X155354182Y-76839696D01*
X155354182Y-76839696D02*
X155306563Y-76744458D01*
X155306563Y-76744458D02*
X155258944Y-76696839D01*
X155258944Y-76696839D02*
X155163706Y-76649220D01*
X155163706Y-76649220D02*
X154973230Y-76601601D01*
X154973230Y-76601601D02*
X154877992Y-76553982D01*
X154877992Y-76553982D02*
X154830373Y-76506363D01*
X154830373Y-76506363D02*
X154782754Y-76411125D01*
X154782754Y-76411125D02*
X154782754Y-76315887D01*
X154782754Y-76315887D02*
X154830373Y-76220649D01*
X154830373Y-76220649D02*
X154877992Y-76173030D01*
X154877992Y-76173030D02*
X154973230Y-76125411D01*
X154973230Y-76125411D02*
X155211325Y-76125411D01*
X155211325Y-76125411D02*
X155354182Y-76173030D01*
X155377991Y-83524727D02*
X155044658Y-83048536D01*
X154806563Y-83524727D02*
X154806563Y-82524727D01*
X154806563Y-82524727D02*
X155187515Y-82524727D01*
X155187515Y-82524727D02*
X155282753Y-82572346D01*
X155282753Y-82572346D02*
X155330372Y-82619965D01*
X155330372Y-82619965D02*
X155377991Y-82715203D01*
X155377991Y-82715203D02*
X155377991Y-82858060D01*
X155377991Y-82858060D02*
X155330372Y-82953298D01*
X155330372Y-82953298D02*
X155282753Y-83000917D01*
X155282753Y-83000917D02*
X155187515Y-83048536D01*
X155187515Y-83048536D02*
X154806563Y-83048536D01*
X154782754Y-88806884D02*
X155354182Y-88806884D01*
X155068468Y-89806884D02*
X155068468Y-88806884D01*
X163033032Y-113828014D02*
X163604460Y-113828014D01*
X163318746Y-114828014D02*
X163318746Y-113828014D01*
X166168269Y-114828014D02*
X165834936Y-114351823D01*
X165596841Y-114828014D02*
X165596841Y-113828014D01*
X165596841Y-113828014D02*
X165977793Y-113828014D01*
X165977793Y-113828014D02*
X166073031Y-113875633D01*
X166073031Y-113875633D02*
X166120650Y-113923252D01*
X166120650Y-113923252D02*
X166168269Y-114018490D01*
X166168269Y-114018490D02*
X166168269Y-114161347D01*
X166168269Y-114161347D02*
X166120650Y-114256585D01*
X166120650Y-114256585D02*
X166073031Y-114304204D01*
X166073031Y-114304204D02*
X165977793Y-114351823D01*
X165977793Y-114351823D02*
X165596841Y-114351823D01*
X168113032Y-114780395D02*
X168255889Y-114828014D01*
X168255889Y-114828014D02*
X168493984Y-114828014D01*
X168493984Y-114828014D02*
X168589222Y-114780395D01*
X168589222Y-114780395D02*
X168636841Y-114732775D01*
X168636841Y-114732775D02*
X168684460Y-114637537D01*
X168684460Y-114637537D02*
X168684460Y-114542299D01*
X168684460Y-114542299D02*
X168636841Y-114447061D01*
X168636841Y-114447061D02*
X168589222Y-114399442D01*
X168589222Y-114399442D02*
X168493984Y-114351823D01*
X168493984Y-114351823D02*
X168303508Y-114304204D01*
X168303508Y-114304204D02*
X168208270Y-114256585D01*
X168208270Y-114256585D02*
X168160651Y-114208966D01*
X168160651Y-114208966D02*
X168113032Y-114113728D01*
X168113032Y-114113728D02*
X168113032Y-114018490D01*
X168113032Y-114018490D02*
X168160651Y-113923252D01*
X168160651Y-113923252D02*
X168208270Y-113875633D01*
X168208270Y-113875633D02*
X168303508Y-113828014D01*
X168303508Y-113828014D02*
X168541603Y-113828014D01*
X168541603Y-113828014D02*
X168684460Y-113875633D01*
X170883571Y-126187419D02*
X171074047Y-126187419D01*
X171074047Y-126187419D02*
X171169285Y-126139800D01*
X171169285Y-126139800D02*
X171216904Y-126092180D01*
X171216904Y-126092180D02*
X171312142Y-125949323D01*
X171312142Y-125949323D02*
X171359761Y-125758847D01*
X171359761Y-125758847D02*
X171359761Y-125377895D01*
X171359761Y-125377895D02*
X171312142Y-125282657D01*
X171312142Y-125282657D02*
X171264523Y-125235038D01*
X171264523Y-125235038D02*
X171169285Y-125187419D01*
X171169285Y-125187419D02*
X170978809Y-125187419D01*
X170978809Y-125187419D02*
X170883571Y-125235038D01*
X170883571Y-125235038D02*
X170835952Y-125282657D01*
X170835952Y-125282657D02*
X170788333Y-125377895D01*
X170788333Y-125377895D02*
X170788333Y-125615990D01*
X170788333Y-125615990D02*
X170835952Y-125711228D01*
X170835952Y-125711228D02*
X170883571Y-125758847D01*
X170883571Y-125758847D02*
X170978809Y-125806466D01*
X170978809Y-125806466D02*
X171169285Y-125806466D01*
X171169285Y-125806466D02*
X171264523Y-125758847D01*
X171264523Y-125758847D02*
X171312142Y-125711228D01*
X171312142Y-125711228D02*
X171359761Y-125615990D01*
X171693095Y-125520752D02*
X171931190Y-126187419D01*
X171931190Y-126187419D02*
X172169285Y-125520752D01*
X124079048Y-127126466D02*
X124840953Y-127126466D01*
X124460000Y-127507419D02*
X124460000Y-126745514D01*
X126619048Y-127126466D02*
X127380953Y-127126466D01*
X146934167Y-101621529D02*
X147696072Y-101621529D01*
X147315119Y-102002482D02*
X147315119Y-101240577D01*
X146939048Y-120776466D02*
X147700953Y-120776466D01*
X147320000Y-121157419D02*
X147320000Y-120395514D01*
X149474167Y-101621529D02*
X150236072Y-101621529D01*
X149479048Y-120776466D02*
X150240953Y-120776466D01*
X169799048Y-127126466D02*
X170560953Y-127126466D01*
X170180000Y-127507419D02*
X170180000Y-126745514D01*
X172339048Y-127126466D02*
X173100953Y-127126466D01*
D11*
X154299233Y-109674819D02*
X153965900Y-109198628D01*
X153727805Y-109674819D02*
X153727805Y-108674819D01*
X153727805Y-108674819D02*
X154108757Y-108674819D01*
X154108757Y-108674819D02*
X154203995Y-108722438D01*
X154203995Y-108722438D02*
X154251614Y-108770057D01*
X154251614Y-108770057D02*
X154299233Y-108865295D01*
X154299233Y-108865295D02*
X154299233Y-109008152D01*
X154299233Y-109008152D02*
X154251614Y-109103390D01*
X154251614Y-109103390D02*
X154203995Y-109151009D01*
X154203995Y-109151009D02*
X154108757Y-109198628D01*
X154108757Y-109198628D02*
X153727805Y-109198628D01*
X155251614Y-109674819D02*
X154680186Y-109674819D01*
X154965900Y-109674819D02*
X154965900Y-108674819D01*
X154965900Y-108674819D02*
X154870662Y-108817676D01*
X154870662Y-108817676D02*
X154775424Y-108912914D01*
X154775424Y-108912914D02*
X154680186Y-108960533D01*
X124920476Y-123279819D02*
X125253809Y-124279819D01*
X125253809Y-124279819D02*
X125587142Y-123279819D01*
X125872857Y-123375057D02*
X125920476Y-123327438D01*
X125920476Y-123327438D02*
X126015714Y-123279819D01*
X126015714Y-123279819D02*
X126253809Y-123279819D01*
X126253809Y-123279819D02*
X126349047Y-123327438D01*
X126349047Y-123327438D02*
X126396666Y-123375057D01*
X126396666Y-123375057D02*
X126444285Y-123470295D01*
X126444285Y-123470295D02*
X126444285Y-123565533D01*
X126444285Y-123565533D02*
X126396666Y-123708390D01*
X126396666Y-123708390D02*
X125825238Y-124279819D01*
X125825238Y-124279819D02*
X126444285Y-124279819D01*
X152966767Y-95657200D02*
X153109624Y-95704819D01*
X153109624Y-95704819D02*
X153347719Y-95704819D01*
X153347719Y-95704819D02*
X153442957Y-95657200D01*
X153442957Y-95657200D02*
X153490576Y-95609580D01*
X153490576Y-95609580D02*
X153538195Y-95514342D01*
X153538195Y-95514342D02*
X153538195Y-95419104D01*
X153538195Y-95419104D02*
X153490576Y-95323866D01*
X153490576Y-95323866D02*
X153442957Y-95276247D01*
X153442957Y-95276247D02*
X153347719Y-95228628D01*
X153347719Y-95228628D02*
X153157243Y-95181009D01*
X153157243Y-95181009D02*
X153062005Y-95133390D01*
X153062005Y-95133390D02*
X153014386Y-95085771D01*
X153014386Y-95085771D02*
X152966767Y-94990533D01*
X152966767Y-94990533D02*
X152966767Y-94895295D01*
X152966767Y-94895295D02*
X153014386Y-94800057D01*
X153014386Y-94800057D02*
X153062005Y-94752438D01*
X153062005Y-94752438D02*
X153157243Y-94704819D01*
X153157243Y-94704819D02*
X153395338Y-94704819D01*
X153395338Y-94704819D02*
X153538195Y-94752438D01*
X153871529Y-94704819D02*
X154109624Y-95704819D01*
X154109624Y-95704819D02*
X154300100Y-94990533D01*
X154300100Y-94990533D02*
X154490576Y-95704819D01*
X154490576Y-95704819D02*
X154728672Y-94704819D01*
X155014386Y-94704819D02*
X155633433Y-94704819D01*
X155633433Y-94704819D02*
X155300100Y-95085771D01*
X155300100Y-95085771D02*
X155442957Y-95085771D01*
X155442957Y-95085771D02*
X155538195Y-95133390D01*
X155538195Y-95133390D02*
X155585814Y-95181009D01*
X155585814Y-95181009D02*
X155633433Y-95276247D01*
X155633433Y-95276247D02*
X155633433Y-95514342D01*
X155633433Y-95514342D02*
X155585814Y-95609580D01*
X155585814Y-95609580D02*
X155538195Y-95657200D01*
X155538195Y-95657200D02*
X155442957Y-95704819D01*
X155442957Y-95704819D02*
X155157243Y-95704819D01*
X155157243Y-95704819D02*
X155062005Y-95657200D01*
X155062005Y-95657200D02*
X155014386Y-95609580D01*
X146187798Y-86279819D02*
X146187798Y-85279819D01*
X146187798Y-85279819D02*
X146425893Y-85279819D01*
X146425893Y-85279819D02*
X146568750Y-85327438D01*
X146568750Y-85327438D02*
X146663988Y-85422676D01*
X146663988Y-85422676D02*
X146711607Y-85517914D01*
X146711607Y-85517914D02*
X146759226Y-85708390D01*
X146759226Y-85708390D02*
X146759226Y-85851247D01*
X146759226Y-85851247D02*
X146711607Y-86041723D01*
X146711607Y-86041723D02*
X146663988Y-86136961D01*
X146663988Y-86136961D02*
X146568750Y-86232200D01*
X146568750Y-86232200D02*
X146425893Y-86279819D01*
X146425893Y-86279819D02*
X146187798Y-86279819D01*
X147759226Y-86184580D02*
X147711607Y-86232200D01*
X147711607Y-86232200D02*
X147568750Y-86279819D01*
X147568750Y-86279819D02*
X147473512Y-86279819D01*
X147473512Y-86279819D02*
X147330655Y-86232200D01*
X147330655Y-86232200D02*
X147235417Y-86136961D01*
X147235417Y-86136961D02*
X147187798Y-86041723D01*
X147187798Y-86041723D02*
X147140179Y-85851247D01*
X147140179Y-85851247D02*
X147140179Y-85708390D01*
X147140179Y-85708390D02*
X147187798Y-85517914D01*
X147187798Y-85517914D02*
X147235417Y-85422676D01*
X147235417Y-85422676D02*
X147330655Y-85327438D01*
X147330655Y-85327438D02*
X147473512Y-85279819D01*
X147473512Y-85279819D02*
X147568750Y-85279819D01*
X147568750Y-85279819D02*
X147711607Y-85327438D01*
X147711607Y-85327438D02*
X147759226Y-85375057D01*
X147949703Y-86375057D02*
X148711607Y-86375057D01*
X148949703Y-86279819D02*
X148949703Y-85279819D01*
X149425893Y-86279819D02*
X149425893Y-85279819D01*
X149425893Y-85279819D02*
X149997321Y-86279819D01*
X149997321Y-86279819D02*
X149997321Y-85279819D01*
X150997321Y-86279819D02*
X150425893Y-86279819D01*
X150711607Y-86279819D02*
X150711607Y-85279819D01*
X150711607Y-85279819D02*
X150616369Y-85422676D01*
X150616369Y-85422676D02*
X150521131Y-85517914D01*
X150521131Y-85517914D02*
X150425893Y-85565533D01*
X149471429Y-124279819D02*
X149471429Y-123279819D01*
X149471429Y-123279819D02*
X149852381Y-123279819D01*
X149852381Y-123279819D02*
X149947619Y-123327438D01*
X149947619Y-123327438D02*
X149995238Y-123375057D01*
X149995238Y-123375057D02*
X150042857Y-123470295D01*
X150042857Y-123470295D02*
X150042857Y-123613152D01*
X150042857Y-123613152D02*
X149995238Y-123708390D01*
X149995238Y-123708390D02*
X149947619Y-123756009D01*
X149947619Y-123756009D02*
X149852381Y-123803628D01*
X149852381Y-123803628D02*
X149471429Y-123803628D01*
X150471429Y-124279819D02*
X150471429Y-123279819D01*
X150947619Y-124279819D02*
X150947619Y-123279819D01*
X150947619Y-123279819D02*
X151519047Y-124279819D01*
X151519047Y-124279819D02*
X151519047Y-123279819D01*
X152185714Y-123279819D02*
X152376190Y-123279819D01*
X152376190Y-123279819D02*
X152471428Y-123327438D01*
X152471428Y-123327438D02*
X152566666Y-123422676D01*
X152566666Y-123422676D02*
X152614285Y-123613152D01*
X152614285Y-123613152D02*
X152614285Y-123946485D01*
X152614285Y-123946485D02*
X152566666Y-124136961D01*
X152566666Y-124136961D02*
X152471428Y-124232200D01*
X152471428Y-124232200D02*
X152376190Y-124279819D01*
X152376190Y-124279819D02*
X152185714Y-124279819D01*
X152185714Y-124279819D02*
X152090476Y-124232200D01*
X152090476Y-124232200D02*
X151995238Y-124136961D01*
X151995238Y-124136961D02*
X151947619Y-123946485D01*
X151947619Y-123946485D02*
X151947619Y-123613152D01*
X151947619Y-123613152D02*
X151995238Y-123422676D01*
X151995238Y-123422676D02*
X152090476Y-123327438D01*
X152090476Y-123327438D02*
X152185714Y-123279819D01*
X153042857Y-123279819D02*
X153042857Y-124089342D01*
X153042857Y-124089342D02*
X153090476Y-124184580D01*
X153090476Y-124184580D02*
X153138095Y-124232200D01*
X153138095Y-124232200D02*
X153233333Y-124279819D01*
X153233333Y-124279819D02*
X153423809Y-124279819D01*
X153423809Y-124279819D02*
X153519047Y-124232200D01*
X153519047Y-124232200D02*
X153566666Y-124184580D01*
X153566666Y-124184580D02*
X153614285Y-124089342D01*
X153614285Y-124089342D02*
X153614285Y-123279819D01*
X153947619Y-123279819D02*
X154519047Y-123279819D01*
X154233333Y-124279819D02*
X154233333Y-123279819D01*
X155280952Y-123613152D02*
X155280952Y-124279819D01*
X155042857Y-123232200D02*
X154804762Y-123946485D01*
X154804762Y-123946485D02*
X155423809Y-123946485D01*
X123255167Y-106227200D02*
X123398024Y-106274819D01*
X123398024Y-106274819D02*
X123636119Y-106274819D01*
X123636119Y-106274819D02*
X123731357Y-106227200D01*
X123731357Y-106227200D02*
X123778976Y-106179580D01*
X123778976Y-106179580D02*
X123826595Y-106084342D01*
X123826595Y-106084342D02*
X123826595Y-105989104D01*
X123826595Y-105989104D02*
X123778976Y-105893866D01*
X123778976Y-105893866D02*
X123731357Y-105846247D01*
X123731357Y-105846247D02*
X123636119Y-105798628D01*
X123636119Y-105798628D02*
X123445643Y-105751009D01*
X123445643Y-105751009D02*
X123350405Y-105703390D01*
X123350405Y-105703390D02*
X123302786Y-105655771D01*
X123302786Y-105655771D02*
X123255167Y-105560533D01*
X123255167Y-105560533D02*
X123255167Y-105465295D01*
X123255167Y-105465295D02*
X123302786Y-105370057D01*
X123302786Y-105370057D02*
X123350405Y-105322438D01*
X123350405Y-105322438D02*
X123445643Y-105274819D01*
X123445643Y-105274819D02*
X123683738Y-105274819D01*
X123683738Y-105274819D02*
X123826595Y-105322438D01*
X124159929Y-105274819D02*
X124398024Y-106274819D01*
X124398024Y-106274819D02*
X124588500Y-105560533D01*
X124588500Y-105560533D02*
X124778976Y-106274819D01*
X124778976Y-106274819D02*
X125017072Y-105274819D01*
X125921833Y-106274819D02*
X125350405Y-106274819D01*
X125636119Y-106274819D02*
X125636119Y-105274819D01*
X125636119Y-105274819D02*
X125540881Y-105417676D01*
X125540881Y-105417676D02*
X125445643Y-105512914D01*
X125445643Y-105512914D02*
X125350405Y-105560533D01*
X161058976Y-97459104D02*
X161535166Y-97459104D01*
X160963738Y-97744819D02*
X161297071Y-96744819D01*
X161297071Y-96744819D02*
X161630404Y-97744819D01*
X161963738Y-96744819D02*
X161963738Y-97554342D01*
X161963738Y-97554342D02*
X162011357Y-97649580D01*
X162011357Y-97649580D02*
X162058976Y-97697200D01*
X162058976Y-97697200D02*
X162154214Y-97744819D01*
X162154214Y-97744819D02*
X162344690Y-97744819D01*
X162344690Y-97744819D02*
X162439928Y-97697200D01*
X162439928Y-97697200D02*
X162487547Y-97649580D01*
X162487547Y-97649580D02*
X162535166Y-97554342D01*
X162535166Y-97554342D02*
X162535166Y-96744819D01*
X163011357Y-97744819D02*
X163011357Y-96744819D01*
X163011357Y-96744819D02*
X163249452Y-96744819D01*
X163249452Y-96744819D02*
X163392309Y-96792438D01*
X163392309Y-96792438D02*
X163487547Y-96887676D01*
X163487547Y-96887676D02*
X163535166Y-96982914D01*
X163535166Y-96982914D02*
X163582785Y-97173390D01*
X163582785Y-97173390D02*
X163582785Y-97316247D01*
X163582785Y-97316247D02*
X163535166Y-97506723D01*
X163535166Y-97506723D02*
X163487547Y-97601961D01*
X163487547Y-97601961D02*
X163392309Y-97697200D01*
X163392309Y-97697200D02*
X163249452Y-97744819D01*
X163249452Y-97744819D02*
X163011357Y-97744819D01*
X164011357Y-97744819D02*
X164011357Y-96744819D01*
X164678023Y-96744819D02*
X164868499Y-96744819D01*
X164868499Y-96744819D02*
X164963737Y-96792438D01*
X164963737Y-96792438D02*
X165058975Y-96887676D01*
X165058975Y-96887676D02*
X165106594Y-97078152D01*
X165106594Y-97078152D02*
X165106594Y-97411485D01*
X165106594Y-97411485D02*
X165058975Y-97601961D01*
X165058975Y-97601961D02*
X164963737Y-97697200D01*
X164963737Y-97697200D02*
X164868499Y-97744819D01*
X164868499Y-97744819D02*
X164678023Y-97744819D01*
X164678023Y-97744819D02*
X164582785Y-97697200D01*
X164582785Y-97697200D02*
X164487547Y-97601961D01*
X164487547Y-97601961D02*
X164439928Y-97411485D01*
X164439928Y-97411485D02*
X164439928Y-97078152D01*
X164439928Y-97078152D02*
X164487547Y-96887676D01*
X164487547Y-96887676D02*
X164582785Y-96792438D01*
X164582785Y-96792438D02*
X164678023Y-96744819D01*
X165297071Y-97840057D02*
X166058975Y-97840057D01*
X166487547Y-96744819D02*
X166678023Y-96744819D01*
X166678023Y-96744819D02*
X166773261Y-96792438D01*
X166773261Y-96792438D02*
X166868499Y-96887676D01*
X166868499Y-96887676D02*
X166916118Y-97078152D01*
X166916118Y-97078152D02*
X166916118Y-97411485D01*
X166916118Y-97411485D02*
X166868499Y-97601961D01*
X166868499Y-97601961D02*
X166773261Y-97697200D01*
X166773261Y-97697200D02*
X166678023Y-97744819D01*
X166678023Y-97744819D02*
X166487547Y-97744819D01*
X166487547Y-97744819D02*
X166392309Y-97697200D01*
X166392309Y-97697200D02*
X166297071Y-97601961D01*
X166297071Y-97601961D02*
X166249452Y-97411485D01*
X166249452Y-97411485D02*
X166249452Y-97078152D01*
X166249452Y-97078152D02*
X166297071Y-96887676D01*
X166297071Y-96887676D02*
X166392309Y-96792438D01*
X166392309Y-96792438D02*
X166487547Y-96744819D01*
X167344690Y-96744819D02*
X167344690Y-97554342D01*
X167344690Y-97554342D02*
X167392309Y-97649580D01*
X167392309Y-97649580D02*
X167439928Y-97697200D01*
X167439928Y-97697200D02*
X167535166Y-97744819D01*
X167535166Y-97744819D02*
X167725642Y-97744819D01*
X167725642Y-97744819D02*
X167820880Y-97697200D01*
X167820880Y-97697200D02*
X167868499Y-97649580D01*
X167868499Y-97649580D02*
X167916118Y-97554342D01*
X167916118Y-97554342D02*
X167916118Y-96744819D01*
X168249452Y-96744819D02*
X168820880Y-96744819D01*
X168535166Y-97744819D02*
X168535166Y-96744819D01*
X169678023Y-97744819D02*
X169106595Y-97744819D01*
X169392309Y-97744819D02*
X169392309Y-96744819D01*
X169392309Y-96744819D02*
X169297071Y-96887676D01*
X169297071Y-96887676D02*
X169201833Y-96982914D01*
X169201833Y-96982914D02*
X169106595Y-97030533D01*
X128644929Y-122374819D02*
X128644929Y-121374819D01*
X128644929Y-121374819D02*
X129025881Y-121374819D01*
X129025881Y-121374819D02*
X129121119Y-121422438D01*
X129121119Y-121422438D02*
X129168738Y-121470057D01*
X129168738Y-121470057D02*
X129216357Y-121565295D01*
X129216357Y-121565295D02*
X129216357Y-121708152D01*
X129216357Y-121708152D02*
X129168738Y-121803390D01*
X129168738Y-121803390D02*
X129121119Y-121851009D01*
X129121119Y-121851009D02*
X129025881Y-121898628D01*
X129025881Y-121898628D02*
X128644929Y-121898628D01*
X129644929Y-122374819D02*
X129644929Y-121374819D01*
X130121119Y-122374819D02*
X130121119Y-121374819D01*
X130121119Y-121374819D02*
X130692547Y-122374819D01*
X130692547Y-122374819D02*
X130692547Y-121374819D01*
X131359214Y-121374819D02*
X131549690Y-121374819D01*
X131549690Y-121374819D02*
X131644928Y-121422438D01*
X131644928Y-121422438D02*
X131740166Y-121517676D01*
X131740166Y-121517676D02*
X131787785Y-121708152D01*
X131787785Y-121708152D02*
X131787785Y-122041485D01*
X131787785Y-122041485D02*
X131740166Y-122231961D01*
X131740166Y-122231961D02*
X131644928Y-122327200D01*
X131644928Y-122327200D02*
X131549690Y-122374819D01*
X131549690Y-122374819D02*
X131359214Y-122374819D01*
X131359214Y-122374819D02*
X131263976Y-122327200D01*
X131263976Y-122327200D02*
X131168738Y-122231961D01*
X131168738Y-122231961D02*
X131121119Y-122041485D01*
X131121119Y-122041485D02*
X131121119Y-121708152D01*
X131121119Y-121708152D02*
X131168738Y-121517676D01*
X131168738Y-121517676D02*
X131263976Y-121422438D01*
X131263976Y-121422438D02*
X131359214Y-121374819D01*
X132216357Y-121374819D02*
X132216357Y-122184342D01*
X132216357Y-122184342D02*
X132263976Y-122279580D01*
X132263976Y-122279580D02*
X132311595Y-122327200D01*
X132311595Y-122327200D02*
X132406833Y-122374819D01*
X132406833Y-122374819D02*
X132597309Y-122374819D01*
X132597309Y-122374819D02*
X132692547Y-122327200D01*
X132692547Y-122327200D02*
X132740166Y-122279580D01*
X132740166Y-122279580D02*
X132787785Y-122184342D01*
X132787785Y-122184342D02*
X132787785Y-121374819D01*
X133121119Y-121374819D02*
X133692547Y-121374819D01*
X133406833Y-122374819D02*
X133406833Y-121374819D01*
X134549690Y-122374819D02*
X133978262Y-122374819D01*
X134263976Y-122374819D02*
X134263976Y-121374819D01*
X134263976Y-121374819D02*
X134168738Y-121517676D01*
X134168738Y-121517676D02*
X134073500Y-121612914D01*
X134073500Y-121612914D02*
X133978262Y-121660533D01*
X147780476Y-121374819D02*
X148113809Y-122374819D01*
X148113809Y-122374819D02*
X148447142Y-121374819D01*
X149304285Y-122374819D02*
X148732857Y-122374819D01*
X149018571Y-122374819D02*
X149018571Y-121374819D01*
X149018571Y-121374819D02*
X148923333Y-121517676D01*
X148923333Y-121517676D02*
X148828095Y-121612914D01*
X148828095Y-121612914D02*
X148732857Y-121660533D01*
X127802175Y-97959104D02*
X128278365Y-97959104D01*
X127706937Y-98244819D02*
X128040270Y-97244819D01*
X128040270Y-97244819D02*
X128373603Y-98244819D01*
X128706937Y-97244819D02*
X128706937Y-98054342D01*
X128706937Y-98054342D02*
X128754556Y-98149580D01*
X128754556Y-98149580D02*
X128802175Y-98197200D01*
X128802175Y-98197200D02*
X128897413Y-98244819D01*
X128897413Y-98244819D02*
X129087889Y-98244819D01*
X129087889Y-98244819D02*
X129183127Y-98197200D01*
X129183127Y-98197200D02*
X129230746Y-98149580D01*
X129230746Y-98149580D02*
X129278365Y-98054342D01*
X129278365Y-98054342D02*
X129278365Y-97244819D01*
X129754556Y-98244819D02*
X129754556Y-97244819D01*
X129754556Y-97244819D02*
X129992651Y-97244819D01*
X129992651Y-97244819D02*
X130135508Y-97292438D01*
X130135508Y-97292438D02*
X130230746Y-97387676D01*
X130230746Y-97387676D02*
X130278365Y-97482914D01*
X130278365Y-97482914D02*
X130325984Y-97673390D01*
X130325984Y-97673390D02*
X130325984Y-97816247D01*
X130325984Y-97816247D02*
X130278365Y-98006723D01*
X130278365Y-98006723D02*
X130230746Y-98101961D01*
X130230746Y-98101961D02*
X130135508Y-98197200D01*
X130135508Y-98197200D02*
X129992651Y-98244819D01*
X129992651Y-98244819D02*
X129754556Y-98244819D01*
X130754556Y-98244819D02*
X130754556Y-97244819D01*
X131421222Y-97244819D02*
X131611698Y-97244819D01*
X131611698Y-97244819D02*
X131706936Y-97292438D01*
X131706936Y-97292438D02*
X131802174Y-97387676D01*
X131802174Y-97387676D02*
X131849793Y-97578152D01*
X131849793Y-97578152D02*
X131849793Y-97911485D01*
X131849793Y-97911485D02*
X131802174Y-98101961D01*
X131802174Y-98101961D02*
X131706936Y-98197200D01*
X131706936Y-98197200D02*
X131611698Y-98244819D01*
X131611698Y-98244819D02*
X131421222Y-98244819D01*
X131421222Y-98244819D02*
X131325984Y-98197200D01*
X131325984Y-98197200D02*
X131230746Y-98101961D01*
X131230746Y-98101961D02*
X131183127Y-97911485D01*
X131183127Y-97911485D02*
X131183127Y-97578152D01*
X131183127Y-97578152D02*
X131230746Y-97387676D01*
X131230746Y-97387676D02*
X131325984Y-97292438D01*
X131325984Y-97292438D02*
X131421222Y-97244819D01*
X132040270Y-98340057D02*
X132802174Y-98340057D01*
X133040270Y-98244819D02*
X133040270Y-97244819D01*
X133516460Y-98244819D02*
X133516460Y-97244819D01*
X133516460Y-97244819D02*
X134087888Y-98244819D01*
X134087888Y-98244819D02*
X134087888Y-97244819D01*
X135087888Y-98244819D02*
X134516460Y-98244819D01*
X134802174Y-98244819D02*
X134802174Y-97244819D01*
X134802174Y-97244819D02*
X134706936Y-97387676D01*
X134706936Y-97387676D02*
X134611698Y-97482914D01*
X134611698Y-97482914D02*
X134516460Y-97530533D01*
X170640476Y-123279819D02*
X170973809Y-124279819D01*
X170973809Y-124279819D02*
X171307142Y-123279819D01*
X171545238Y-123279819D02*
X172164285Y-123279819D01*
X172164285Y-123279819D02*
X171830952Y-123660771D01*
X171830952Y-123660771D02*
X171973809Y-123660771D01*
X171973809Y-123660771D02*
X172069047Y-123708390D01*
X172069047Y-123708390D02*
X172116666Y-123756009D01*
X172116666Y-123756009D02*
X172164285Y-123851247D01*
X172164285Y-123851247D02*
X172164285Y-124089342D01*
X172164285Y-124089342D02*
X172116666Y-124184580D01*
X172116666Y-124184580D02*
X172069047Y-124232200D01*
X172069047Y-124232200D02*
X171973809Y-124279819D01*
X171973809Y-124279819D02*
X171688095Y-124279819D01*
X171688095Y-124279819D02*
X171592857Y-124232200D01*
X171592857Y-124232200D02*
X171545238Y-124184580D01*
X162934929Y-121739819D02*
X162934929Y-120739819D01*
X162934929Y-120739819D02*
X163315881Y-120739819D01*
X163315881Y-120739819D02*
X163411119Y-120787438D01*
X163411119Y-120787438D02*
X163458738Y-120835057D01*
X163458738Y-120835057D02*
X163506357Y-120930295D01*
X163506357Y-120930295D02*
X163506357Y-121073152D01*
X163506357Y-121073152D02*
X163458738Y-121168390D01*
X163458738Y-121168390D02*
X163411119Y-121216009D01*
X163411119Y-121216009D02*
X163315881Y-121263628D01*
X163315881Y-121263628D02*
X162934929Y-121263628D01*
X163934929Y-121739819D02*
X163934929Y-120739819D01*
X164411119Y-121739819D02*
X164411119Y-120739819D01*
X164411119Y-120739819D02*
X164982547Y-121739819D01*
X164982547Y-121739819D02*
X164982547Y-120739819D01*
X165649214Y-120739819D02*
X165839690Y-120739819D01*
X165839690Y-120739819D02*
X165934928Y-120787438D01*
X165934928Y-120787438D02*
X166030166Y-120882676D01*
X166030166Y-120882676D02*
X166077785Y-121073152D01*
X166077785Y-121073152D02*
X166077785Y-121406485D01*
X166077785Y-121406485D02*
X166030166Y-121596961D01*
X166030166Y-121596961D02*
X165934928Y-121692200D01*
X165934928Y-121692200D02*
X165839690Y-121739819D01*
X165839690Y-121739819D02*
X165649214Y-121739819D01*
X165649214Y-121739819D02*
X165553976Y-121692200D01*
X165553976Y-121692200D02*
X165458738Y-121596961D01*
X165458738Y-121596961D02*
X165411119Y-121406485D01*
X165411119Y-121406485D02*
X165411119Y-121073152D01*
X165411119Y-121073152D02*
X165458738Y-120882676D01*
X165458738Y-120882676D02*
X165553976Y-120787438D01*
X165553976Y-120787438D02*
X165649214Y-120739819D01*
X166506357Y-120739819D02*
X166506357Y-121549342D01*
X166506357Y-121549342D02*
X166553976Y-121644580D01*
X166553976Y-121644580D02*
X166601595Y-121692200D01*
X166601595Y-121692200D02*
X166696833Y-121739819D01*
X166696833Y-121739819D02*
X166887309Y-121739819D01*
X166887309Y-121739819D02*
X166982547Y-121692200D01*
X166982547Y-121692200D02*
X167030166Y-121644580D01*
X167030166Y-121644580D02*
X167077785Y-121549342D01*
X167077785Y-121549342D02*
X167077785Y-120739819D01*
X167411119Y-120739819D02*
X167982547Y-120739819D01*
X167696833Y-121739819D02*
X167696833Y-120739819D01*
X168268262Y-120835057D02*
X168315881Y-120787438D01*
X168315881Y-120787438D02*
X168411119Y-120739819D01*
X168411119Y-120739819D02*
X168649214Y-120739819D01*
X168649214Y-120739819D02*
X168744452Y-120787438D01*
X168744452Y-120787438D02*
X168792071Y-120835057D01*
X168792071Y-120835057D02*
X168839690Y-120930295D01*
X168839690Y-120930295D02*
X168839690Y-121025533D01*
X168839690Y-121025533D02*
X168792071Y-121168390D01*
X168792071Y-121168390D02*
X168220643Y-121739819D01*
X168220643Y-121739819D02*
X168839690Y-121739819D01*
X171515167Y-106269700D02*
X171658024Y-106317319D01*
X171658024Y-106317319D02*
X171896119Y-106317319D01*
X171896119Y-106317319D02*
X171991357Y-106269700D01*
X171991357Y-106269700D02*
X172038976Y-106222080D01*
X172038976Y-106222080D02*
X172086595Y-106126842D01*
X172086595Y-106126842D02*
X172086595Y-106031604D01*
X172086595Y-106031604D02*
X172038976Y-105936366D01*
X172038976Y-105936366D02*
X171991357Y-105888747D01*
X171991357Y-105888747D02*
X171896119Y-105841128D01*
X171896119Y-105841128D02*
X171705643Y-105793509D01*
X171705643Y-105793509D02*
X171610405Y-105745890D01*
X171610405Y-105745890D02*
X171562786Y-105698271D01*
X171562786Y-105698271D02*
X171515167Y-105603033D01*
X171515167Y-105603033D02*
X171515167Y-105507795D01*
X171515167Y-105507795D02*
X171562786Y-105412557D01*
X171562786Y-105412557D02*
X171610405Y-105364938D01*
X171610405Y-105364938D02*
X171705643Y-105317319D01*
X171705643Y-105317319D02*
X171943738Y-105317319D01*
X171943738Y-105317319D02*
X172086595Y-105364938D01*
X172419929Y-105317319D02*
X172658024Y-106317319D01*
X172658024Y-106317319D02*
X172848500Y-105603033D01*
X172848500Y-105603033D02*
X173038976Y-106317319D01*
X173038976Y-106317319D02*
X173277072Y-105317319D01*
X173610405Y-105412557D02*
X173658024Y-105364938D01*
X173658024Y-105364938D02*
X173753262Y-105317319D01*
X173753262Y-105317319D02*
X173991357Y-105317319D01*
X173991357Y-105317319D02*
X174086595Y-105364938D01*
X174086595Y-105364938D02*
X174134214Y-105412557D01*
X174134214Y-105412557D02*
X174181833Y-105507795D01*
X174181833Y-105507795D02*
X174181833Y-105603033D01*
X174181833Y-105603033D02*
X174134214Y-105745890D01*
X174134214Y-105745890D02*
X173562786Y-106317319D01*
X173562786Y-106317319D02*
X174181833Y-106317319D01*
X145007805Y-113634819D02*
X145007805Y-112634819D01*
X145007805Y-112634819D02*
X145245900Y-112634819D01*
X145245900Y-112634819D02*
X145388757Y-112682438D01*
X145388757Y-112682438D02*
X145483995Y-112777676D01*
X145483995Y-112777676D02*
X145531614Y-112872914D01*
X145531614Y-112872914D02*
X145579233Y-113063390D01*
X145579233Y-113063390D02*
X145579233Y-113206247D01*
X145579233Y-113206247D02*
X145531614Y-113396723D01*
X145531614Y-113396723D02*
X145483995Y-113491961D01*
X145483995Y-113491961D02*
X145388757Y-113587200D01*
X145388757Y-113587200D02*
X145245900Y-113634819D01*
X145245900Y-113634819D02*
X145007805Y-113634819D01*
X146531614Y-113634819D02*
X145960186Y-113634819D01*
X146245900Y-113634819D02*
X146245900Y-112634819D01*
X146245900Y-112634819D02*
X146150662Y-112777676D01*
X146150662Y-112777676D02*
X146055424Y-112872914D01*
X146055424Y-112872914D02*
X145960186Y-112920533D01*
X141851429Y-124279819D02*
X141851429Y-123279819D01*
X141851429Y-123279819D02*
X142232381Y-123279819D01*
X142232381Y-123279819D02*
X142327619Y-123327438D01*
X142327619Y-123327438D02*
X142375238Y-123375057D01*
X142375238Y-123375057D02*
X142422857Y-123470295D01*
X142422857Y-123470295D02*
X142422857Y-123613152D01*
X142422857Y-123613152D02*
X142375238Y-123708390D01*
X142375238Y-123708390D02*
X142327619Y-123756009D01*
X142327619Y-123756009D02*
X142232381Y-123803628D01*
X142232381Y-123803628D02*
X141851429Y-123803628D01*
X142851429Y-124279819D02*
X142851429Y-123279819D01*
X143327619Y-124279819D02*
X143327619Y-123279819D01*
X143327619Y-123279819D02*
X143899047Y-124279819D01*
X143899047Y-124279819D02*
X143899047Y-123279819D01*
X144565714Y-123279819D02*
X144756190Y-123279819D01*
X144756190Y-123279819D02*
X144851428Y-123327438D01*
X144851428Y-123327438D02*
X144946666Y-123422676D01*
X144946666Y-123422676D02*
X144994285Y-123613152D01*
X144994285Y-123613152D02*
X144994285Y-123946485D01*
X144994285Y-123946485D02*
X144946666Y-124136961D01*
X144946666Y-124136961D02*
X144851428Y-124232200D01*
X144851428Y-124232200D02*
X144756190Y-124279819D01*
X144756190Y-124279819D02*
X144565714Y-124279819D01*
X144565714Y-124279819D02*
X144470476Y-124232200D01*
X144470476Y-124232200D02*
X144375238Y-124136961D01*
X144375238Y-124136961D02*
X144327619Y-123946485D01*
X144327619Y-123946485D02*
X144327619Y-123613152D01*
X144327619Y-123613152D02*
X144375238Y-123422676D01*
X144375238Y-123422676D02*
X144470476Y-123327438D01*
X144470476Y-123327438D02*
X144565714Y-123279819D01*
X145422857Y-123279819D02*
X145422857Y-124089342D01*
X145422857Y-124089342D02*
X145470476Y-124184580D01*
X145470476Y-124184580D02*
X145518095Y-124232200D01*
X145518095Y-124232200D02*
X145613333Y-124279819D01*
X145613333Y-124279819D02*
X145803809Y-124279819D01*
X145803809Y-124279819D02*
X145899047Y-124232200D01*
X145899047Y-124232200D02*
X145946666Y-124184580D01*
X145946666Y-124184580D02*
X145994285Y-124089342D01*
X145994285Y-124089342D02*
X145994285Y-123279819D01*
X146327619Y-123279819D02*
X146899047Y-123279819D01*
X146613333Y-124279819D02*
X146613333Y-123279819D01*
X147137143Y-123279819D02*
X147756190Y-123279819D01*
X147756190Y-123279819D02*
X147422857Y-123660771D01*
X147422857Y-123660771D02*
X147565714Y-123660771D01*
X147565714Y-123660771D02*
X147660952Y-123708390D01*
X147660952Y-123708390D02*
X147708571Y-123756009D01*
X147708571Y-123756009D02*
X147756190Y-123851247D01*
X147756190Y-123851247D02*
X147756190Y-124089342D01*
X147756190Y-124089342D02*
X147708571Y-124184580D01*
X147708571Y-124184580D02*
X147660952Y-124232200D01*
X147660952Y-124232200D02*
X147565714Y-124279819D01*
X147565714Y-124279819D02*
X147280000Y-124279819D01*
X147280000Y-124279819D02*
X147184762Y-124232200D01*
X147184762Y-124232200D02*
X147137143Y-124184580D01*
%TO.C,R1*%
D12*
X152095900Y-105180000D02*
X152095900Y-105950000D01*
X152095900Y-113260000D02*
X152095900Y-112490000D01*
X150725900Y-105950000D02*
X153465900Y-105950000D01*
X153465900Y-112490000D01*
X150725900Y-112490000D01*
X150725900Y-105950000D01*
%TO.C,V2*%
X123080000Y-128160000D02*
X124460000Y-128160000D01*
X123080000Y-129540000D02*
X123080000Y-128160000D01*
X123080000Y-130810000D02*
X123080000Y-133460000D01*
X123080000Y-130810000D02*
X125730000Y-130810000D01*
X123080000Y-133460000D02*
X128380000Y-133460000D01*
X125730000Y-128160000D02*
X128380000Y-128160000D01*
X125730000Y-130810000D02*
X125730000Y-128160000D01*
X128380000Y-128160000D02*
X128380000Y-133460000D01*
%TO.C,SW3*%
X144900100Y-90300000D02*
X144900100Y-100200000D01*
X146685100Y-93220000D02*
X146685100Y-97280000D01*
X146685100Y-97280000D02*
X147955100Y-97280000D01*
X146755100Y-93220000D02*
X146755100Y-94573333D01*
X146875100Y-93220000D02*
X146875100Y-94573333D01*
X146995100Y-93220000D02*
X146995100Y-94573333D01*
X147115100Y-93220000D02*
X147115100Y-94573333D01*
X147235100Y-93220000D02*
X147235100Y-94573333D01*
X147355100Y-93220000D02*
X147355100Y-94573333D01*
X147475100Y-93220000D02*
X147475100Y-94573333D01*
X147595100Y-93220000D02*
X147595100Y-94573333D01*
X147715100Y-93220000D02*
X147715100Y-94573333D01*
X147835100Y-93220000D02*
X147835100Y-94573333D01*
X147955100Y-93220000D02*
X146685100Y-93220000D01*
X147955100Y-94573333D02*
X146685100Y-94573333D01*
X147955100Y-97280000D02*
X147955100Y-93220000D01*
X149225100Y-93220000D02*
X149225100Y-97280000D01*
X149225100Y-97280000D02*
X150495100Y-97280000D01*
X149295100Y-93220000D02*
X149295100Y-94573333D01*
X149415100Y-93220000D02*
X149415100Y-94573333D01*
X149535100Y-93220000D02*
X149535100Y-94573333D01*
X149655100Y-93220000D02*
X149655100Y-94573333D01*
X149775100Y-93220000D02*
X149775100Y-94573333D01*
X149895100Y-93220000D02*
X149895100Y-94573333D01*
X150015100Y-93220000D02*
X150015100Y-94573333D01*
X150135100Y-93220000D02*
X150135100Y-94573333D01*
X150255100Y-93220000D02*
X150255100Y-94573333D01*
X150375100Y-93220000D02*
X150375100Y-94573333D01*
X150495100Y-93220000D02*
X149225100Y-93220000D01*
X150495100Y-94573333D02*
X149225100Y-94573333D01*
X150495100Y-97280000D02*
X150495100Y-93220000D01*
X152280100Y-90300000D02*
X144900100Y-90300000D01*
X152280100Y-90300000D02*
X152280100Y-100200000D01*
X152280100Y-100200000D02*
X144900100Y-100200000D01*
X152520100Y-90060000D02*
X151137100Y-90060000D01*
X152520100Y-90060000D02*
X152520100Y-91444000D01*
%TO.C,DC_IN1*%
D13*
X144090000Y-69445000D02*
X144090000Y-77840000D01*
X144090000Y-82530000D02*
X144090000Y-83945000D01*
X144090000Y-83945000D02*
X145990000Y-83945000D01*
X151190000Y-83945000D02*
X153090000Y-83945000D01*
X153090000Y-69445000D02*
X144090000Y-69445000D01*
X153090000Y-83945000D02*
X153090000Y-69445000D01*
%TO.C,PINOUT4*%
D12*
X151020000Y-125620000D02*
X152400000Y-125620000D01*
X151020000Y-127000000D02*
X151020000Y-125620000D01*
X151020000Y-128270000D02*
X151020000Y-133460000D01*
X151020000Y-128270000D02*
X153780000Y-128270000D01*
X151020000Y-133460000D02*
X153780000Y-133460000D01*
X153780000Y-128270000D02*
X153780000Y-133460000D01*
%TO.C,SW1*%
X126598500Y-100912500D02*
X126598500Y-110812500D01*
X128383500Y-103832500D02*
X128383500Y-107892500D01*
X128383500Y-107892500D02*
X129653500Y-107892500D01*
X128453500Y-103832500D02*
X128453500Y-105185833D01*
X128573500Y-103832500D02*
X128573500Y-105185833D01*
X128693500Y-103832500D02*
X128693500Y-105185833D01*
X128813500Y-103832500D02*
X128813500Y-105185833D01*
X128933500Y-103832500D02*
X128933500Y-105185833D01*
X129053500Y-103832500D02*
X129053500Y-105185833D01*
X129173500Y-103832500D02*
X129173500Y-105185833D01*
X129293500Y-103832500D02*
X129293500Y-105185833D01*
X129413500Y-103832500D02*
X129413500Y-105185833D01*
X129533500Y-103832500D02*
X129533500Y-105185833D01*
X129653500Y-103832500D02*
X128383500Y-103832500D01*
X129653500Y-105185833D02*
X128383500Y-105185833D01*
X129653500Y-107892500D02*
X129653500Y-103832500D01*
X130923500Y-103832500D02*
X130923500Y-107892500D01*
X130923500Y-107892500D02*
X132193500Y-107892500D01*
X130993500Y-103832500D02*
X130993500Y-105185833D01*
X131113500Y-103832500D02*
X131113500Y-105185833D01*
X131233500Y-103832500D02*
X131233500Y-105185833D01*
X131353500Y-103832500D02*
X131353500Y-105185833D01*
X131473500Y-103832500D02*
X131473500Y-105185833D01*
X131593500Y-103832500D02*
X131593500Y-105185833D01*
X131713500Y-103832500D02*
X131713500Y-105185833D01*
X131833500Y-103832500D02*
X131833500Y-105185833D01*
X131953500Y-103832500D02*
X131953500Y-105185833D01*
X132073500Y-103832500D02*
X132073500Y-105185833D01*
X132193500Y-103832500D02*
X130923500Y-103832500D01*
X132193500Y-105185833D02*
X130923500Y-105185833D01*
X132193500Y-107892500D02*
X132193500Y-103832500D01*
X133463500Y-103832500D02*
X133463500Y-107892500D01*
X133463500Y-107892500D02*
X134733500Y-107892500D01*
X133533500Y-103832500D02*
X133533500Y-105185833D01*
X133653500Y-103832500D02*
X133653500Y-105185833D01*
X133773500Y-103832500D02*
X133773500Y-105185833D01*
X133893500Y-103832500D02*
X133893500Y-105185833D01*
X134013500Y-103832500D02*
X134013500Y-105185833D01*
X134133500Y-103832500D02*
X134133500Y-105185833D01*
X134253500Y-103832500D02*
X134253500Y-105185833D01*
X134373500Y-103832500D02*
X134373500Y-105185833D01*
X134493500Y-103832500D02*
X134493500Y-105185833D01*
X134613500Y-103832500D02*
X134613500Y-105185833D01*
X134733500Y-103832500D02*
X133463500Y-103832500D01*
X134733500Y-105185833D02*
X133463500Y-105185833D01*
X134733500Y-107892500D02*
X134733500Y-103832500D01*
X136518500Y-100912500D02*
X126598500Y-100912500D01*
X136518500Y-100912500D02*
X136518500Y-110812500D01*
X136518500Y-110812500D02*
X126598500Y-110812500D01*
X136758500Y-100672500D02*
X135375500Y-100672500D01*
X136758500Y-100672500D02*
X136758500Y-102056500D01*
%TO.C,AUDIO_OUT1*%
X156643500Y-72075000D02*
X156643500Y-74795000D01*
X156643500Y-81195000D02*
X156643500Y-77595000D01*
X156643500Y-87495000D02*
X156643500Y-83895000D01*
X156643500Y-92925000D02*
X156643500Y-90295000D01*
X160043500Y-72075000D02*
X156643500Y-72075000D01*
X160043500Y-72075000D02*
X160043500Y-69075000D01*
X161393500Y-92925000D02*
X156643500Y-92925000D01*
X161393500Y-95845000D02*
X161393500Y-92925000D01*
X170293500Y-95845000D02*
X161393500Y-95845000D01*
X170333500Y-95845000D02*
X170333500Y-92925000D01*
X171683500Y-69075000D02*
X160043500Y-69075000D01*
X171683500Y-72075000D02*
X171683500Y-69075000D01*
X175083500Y-72075000D02*
X171683500Y-72075000D01*
X175083500Y-72075000D02*
X175083500Y-74795000D01*
X175083500Y-77595000D02*
X175083500Y-81195000D01*
X175083500Y-83895000D02*
X175083500Y-87495000D01*
X175083500Y-90295000D02*
X175083500Y-92925000D01*
X175083500Y-92925000D02*
X170333500Y-92925000D01*
%TO.C,PINOUT1*%
X127653500Y-117365000D02*
X127653500Y-120125000D01*
X132843500Y-117365000D02*
X127653500Y-117365000D01*
X132843500Y-117365000D02*
X132843500Y-120125000D01*
X132843500Y-120125000D02*
X127653500Y-120125000D01*
X134113500Y-117365000D02*
X135493500Y-117365000D01*
X135493500Y-117365000D02*
X135493500Y-118745000D01*
%TO.C,V1*%
X145940000Y-117365000D02*
X145940000Y-120125000D01*
X148590000Y-117365000D02*
X145940000Y-117365000D01*
X148590000Y-117365000D02*
X148590000Y-120125000D01*
X148590000Y-120125000D02*
X145940000Y-120125000D01*
X149860000Y-117365000D02*
X151240000Y-117365000D01*
X151240000Y-117365000D02*
X151240000Y-118745000D01*
%TO.C,AUDIO_IN1*%
X122353500Y-72075000D02*
X122353500Y-74795000D01*
X122353500Y-81195000D02*
X122353500Y-77595000D01*
X122353500Y-87495000D02*
X122353500Y-83895000D01*
X122353500Y-92925000D02*
X122353500Y-90295000D01*
X125753500Y-72075000D02*
X122353500Y-72075000D01*
X125753500Y-72075000D02*
X125753500Y-69075000D01*
X127103500Y-92925000D02*
X122353500Y-92925000D01*
X127103500Y-95845000D02*
X127103500Y-92925000D01*
X136003500Y-95845000D02*
X127103500Y-95845000D01*
X136043500Y-95845000D02*
X136043500Y-92925000D01*
X137393500Y-69075000D02*
X125753500Y-69075000D01*
X137393500Y-72075000D02*
X137393500Y-69075000D01*
X140793500Y-72075000D02*
X137393500Y-72075000D01*
X140793500Y-72075000D02*
X140793500Y-74795000D01*
X140793500Y-77595000D02*
X140793500Y-81195000D01*
X140793500Y-83895000D02*
X140793500Y-87495000D01*
X140793500Y-90295000D02*
X140793500Y-92925000D01*
X140793500Y-92925000D02*
X136043500Y-92925000D01*
%TO.C,V3*%
X168800000Y-128160000D02*
X170180000Y-128160000D01*
X168800000Y-129540000D02*
X168800000Y-128160000D01*
X168800000Y-130810000D02*
X168800000Y-133460000D01*
X168800000Y-130810000D02*
X171450000Y-130810000D01*
X168800000Y-133460000D02*
X174100000Y-133460000D01*
X171450000Y-128160000D02*
X174100000Y-128160000D01*
X171450000Y-130810000D02*
X171450000Y-128160000D01*
X174100000Y-128160000D02*
X174100000Y-133460000D01*
%TO.C,PINOUT2*%
X161943500Y-117365000D02*
X161943500Y-120125000D01*
X167133500Y-117365000D02*
X161943500Y-117365000D01*
X167133500Y-117365000D02*
X167133500Y-120125000D01*
X167133500Y-120125000D02*
X161943500Y-120125000D01*
X168403500Y-117365000D02*
X169783500Y-117365000D01*
X169783500Y-117365000D02*
X169783500Y-118745000D01*
%TO.C,SW2*%
X160888500Y-100912500D02*
X160888500Y-110812500D01*
X162673500Y-103832500D02*
X162673500Y-107892500D01*
X162673500Y-107892500D02*
X163943500Y-107892500D01*
X162743500Y-103832500D02*
X162743500Y-105185833D01*
X162863500Y-103832500D02*
X162863500Y-105185833D01*
X162983500Y-103832500D02*
X162983500Y-105185833D01*
X163103500Y-103832500D02*
X163103500Y-105185833D01*
X163223500Y-103832500D02*
X163223500Y-105185833D01*
X163343500Y-103832500D02*
X163343500Y-105185833D01*
X163463500Y-103832500D02*
X163463500Y-105185833D01*
X163583500Y-103832500D02*
X163583500Y-105185833D01*
X163703500Y-103832500D02*
X163703500Y-105185833D01*
X163823500Y-103832500D02*
X163823500Y-105185833D01*
X163943500Y-103832500D02*
X162673500Y-103832500D01*
X163943500Y-105185833D02*
X162673500Y-105185833D01*
X163943500Y-107892500D02*
X163943500Y-103832500D01*
X165213500Y-103832500D02*
X165213500Y-107892500D01*
X165213500Y-107892500D02*
X166483500Y-107892500D01*
X165283500Y-103832500D02*
X165283500Y-105185833D01*
X165403500Y-103832500D02*
X165403500Y-105185833D01*
X165523500Y-103832500D02*
X165523500Y-105185833D01*
X165643500Y-103832500D02*
X165643500Y-105185833D01*
X165763500Y-103832500D02*
X165763500Y-105185833D01*
X165883500Y-103832500D02*
X165883500Y-105185833D01*
X166003500Y-103832500D02*
X166003500Y-105185833D01*
X166123500Y-103832500D02*
X166123500Y-105185833D01*
X166243500Y-103832500D02*
X166243500Y-105185833D01*
X166363500Y-103832500D02*
X166363500Y-105185833D01*
X166483500Y-103832500D02*
X165213500Y-103832500D01*
X166483500Y-105185833D02*
X165213500Y-105185833D01*
X166483500Y-107892500D02*
X166483500Y-103832500D01*
X167753500Y-103832500D02*
X167753500Y-107892500D01*
X167753500Y-107892500D02*
X169023500Y-107892500D01*
X167823500Y-103832500D02*
X167823500Y-105185833D01*
X167943500Y-103832500D02*
X167943500Y-105185833D01*
X168063500Y-103832500D02*
X168063500Y-105185833D01*
X168183500Y-103832500D02*
X168183500Y-105185833D01*
X168303500Y-103832500D02*
X168303500Y-105185833D01*
X168423500Y-103832500D02*
X168423500Y-105185833D01*
X168543500Y-103832500D02*
X168543500Y-105185833D01*
X168663500Y-103832500D02*
X168663500Y-105185833D01*
X168783500Y-103832500D02*
X168783500Y-105185833D01*
X168903500Y-103832500D02*
X168903500Y-105185833D01*
X169023500Y-103832500D02*
X167753500Y-103832500D01*
X169023500Y-105185833D02*
X167753500Y-105185833D01*
X169023500Y-107892500D02*
X169023500Y-103832500D01*
X170808500Y-100912500D02*
X160888500Y-100912500D01*
X170808500Y-100912500D02*
X170808500Y-110812500D01*
X170808500Y-110812500D02*
X160888500Y-110812500D01*
X171048500Y-100672500D02*
X169665500Y-100672500D01*
X171048500Y-100672500D02*
X171048500Y-102056500D01*
%TO.C,D1*%
X148305900Y-110765000D02*
X148305900Y-107675000D01*
X142755900Y-109220000D02*
G75*
G02*
X148305900Y-107675170I2990000J0D01*
G01*
X148305900Y-110764830D02*
G75*
G02*
X142755900Y-109220000I-2560000J1544830D01*
G01*
X148245900Y-109220000D02*
G75*
G02*
X143245900Y-109220000I-2500000J0D01*
G01*
X143245900Y-109220000D02*
G75*
G02*
X148245900Y-109220000I2500000J0D01*
G01*
%TO.C,PINOUT3*%
X143400000Y-125620000D02*
X144780000Y-125620000D01*
X143400000Y-127000000D02*
X143400000Y-125620000D01*
X143400000Y-128270000D02*
X143400000Y-133460000D01*
X143400000Y-128270000D02*
X146160000Y-128270000D01*
X143400000Y-133460000D02*
X146160000Y-133460000D01*
X146160000Y-128270000D02*
X146160000Y-133460000D01*
%TD*%
M02*
