%TF.GenerationSoftware,KiCad,Pcbnew,10.0.3*%
%TF.CreationDate,2026-05-27T09:44:17-04:00*%
%TF.ProjectId,a2b,6132622e-6b69-4636-9164-5f7063625858,rev?*%
%TF.SameCoordinates,Original*%
%TF.FileFunction,Soldermask,Top*%
%TF.FilePolarity,Negative*%
%FSLAX46Y46*%
G04 Gerber Fmt 4.6, Leading zero omitted, Abs format (unit mm)*
G04 Created by KiCad (PCBNEW 10.0.3) date 2026-05-27 09:44:17*
%MOMM*%
%LPD*%
G01*
G04 APERTURE LIST*
%ADD10C,1.600000*%
%ADD11R,1.700000X1.700000*%
%ADD12C,1.700000*%
%ADD13R,1.600000X1.600000*%
%ADD14O,1.600000X1.600000*%
%ADD15O,4.764000X2.484000*%
%ADD16O,2.229000X4.254000*%
%ADD17O,4.254000X2.229000*%
%ADD18C,3.000000*%
%ADD19R,1.800000X1.800000*%
%ADD20C,1.800000*%
G04 APERTURE END LIST*
D10*
%TO.C,R1*%
X152095900Y-104140000D03*
X152095900Y-114300000D03*
%TD*%
D11*
%TO.C,V2*%
X124460000Y-129540000D03*
D12*
X127000000Y-129540000D03*
X124460000Y-132080000D03*
X127000000Y-132080000D03*
%TD*%
D13*
%TO.C,SW3*%
X149860100Y-91440000D03*
D14*
X147320100Y-91440000D03*
X147320100Y-99060000D03*
X149860100Y-99060000D03*
%TD*%
D15*
%TO.C,DC_IN1*%
X148590000Y-83185000D03*
D16*
X143790000Y-80185000D03*
D17*
X148590000Y-76935000D03*
%TD*%
D11*
%TO.C,PINOUT4*%
X152400000Y-127000000D03*
D12*
X152400000Y-129540000D03*
X152400000Y-132080000D03*
%TD*%
D13*
%TO.C,SW1*%
X134098500Y-102052500D03*
D14*
X131558500Y-102052500D03*
X129018500Y-102052500D03*
X129018500Y-109672500D03*
X131558500Y-109672500D03*
X134098500Y-109672500D03*
%TD*%
D18*
%TO.C,AUDIO_OUT1*%
X157748500Y-82545000D03*
X173978500Y-82545000D03*
X157748500Y-76195000D03*
X173978500Y-76195000D03*
X157748500Y-88895000D03*
X173978500Y-88895000D03*
%TD*%
D11*
%TO.C,PINOUT1*%
X134113500Y-118745000D03*
D12*
X131573500Y-118745000D03*
X129033500Y-118745000D03*
%TD*%
D11*
%TO.C,V1*%
X149860000Y-118745000D03*
D12*
X147320000Y-118745000D03*
%TD*%
D18*
%TO.C,AUDIO_IN1*%
X123458500Y-82545000D03*
X139688500Y-82545000D03*
X123458500Y-76195000D03*
X139688500Y-76195000D03*
X123458500Y-88895000D03*
X139688500Y-88895000D03*
%TD*%
D11*
%TO.C,V3*%
X170180000Y-129540000D03*
D12*
X172720000Y-129540000D03*
X170180000Y-132080000D03*
X172720000Y-132080000D03*
%TD*%
D11*
%TO.C,PINOUT2*%
X168403500Y-118745000D03*
D12*
X165863500Y-118745000D03*
X163323500Y-118745000D03*
%TD*%
D13*
%TO.C,SW2*%
X168388500Y-102052500D03*
D14*
X165848500Y-102052500D03*
X163308500Y-102052500D03*
X163308500Y-109672500D03*
X165848500Y-109672500D03*
X168388500Y-109672500D03*
%TD*%
D19*
%TO.C,D1*%
X147015900Y-109220000D03*
D20*
X144475900Y-109220000D03*
%TD*%
D11*
%TO.C,PINOUT3*%
X144780000Y-127000000D03*
D12*
X144780000Y-129540000D03*
X144780000Y-132080000D03*
%TD*%
M02*
