%TF.GenerationSoftware,KiCad,Pcbnew,10.0.3*%
%TF.CreationDate,2026-07-14T14:36:18-04:00*%
%TF.ProjectId,a2b,6132622e-6b69-4636-9164-5f7063625858,rev?*%
%TF.SameCoordinates,Original*%
%TF.FileFunction,Copper,L2,Bot*%
%TF.FilePolarity,Positive*%
%FSLAX46Y46*%
G04 Gerber Fmt 4.6, Leading zero omitted, Abs format (unit mm)*
G04 Created by KiCad (PCBNEW 10.0.3) date 2026-07-14 14:36:18*
%MOMM*%
%LPD*%
G01*
G04 APERTURE LIST*
%TA.AperFunction,ComponentPad*%
%ADD10C,1.600000*%
%TD*%
%TA.AperFunction,ComponentPad*%
%ADD11R,1.700000X1.700000*%
%TD*%
%TA.AperFunction,ComponentPad*%
%ADD12C,1.700000*%
%TD*%
%TA.AperFunction,ComponentPad*%
%ADD13R,1.600000X1.600000*%
%TD*%
%TA.AperFunction,ComponentPad*%
%ADD14O,1.600000X1.600000*%
%TD*%
%TA.AperFunction,ComponentPad*%
%ADD15O,4.560000X2.280000*%
%TD*%
%TA.AperFunction,ComponentPad*%
%ADD16O,2.025000X4.050000*%
%TD*%
%TA.AperFunction,ComponentPad*%
%ADD17O,4.050000X2.025000*%
%TD*%
%TA.AperFunction,ComponentPad*%
%ADD18C,3.000000*%
%TD*%
%TA.AperFunction,ComponentPad*%
%ADD19R,1.800000X1.800000*%
%TD*%
%TA.AperFunction,ComponentPad*%
%ADD20C,1.800000*%
%TD*%
%TA.AperFunction,Conductor*%
%ADD21C,0.200000*%
%TD*%
G04 APERTURE END LIST*
D10*
%TO.P,R1,1*%
%TO.N,Net-(D1-K)*%
X148615000Y-104247900D03*
%TO.P,R1,2*%
%TO.N,Net-(R1-Pad2)*%
X148615000Y-114407900D03*
%TD*%
D11*
%TO.P,V2,1*%
%TO.N,Net-(D1-A)*%
X125095000Y-129540000D03*
D12*
%TO.P,V2,2*%
%TO.N,Net-(R1-Pad2)*%
X127635000Y-129540000D03*
%TO.P,V2,3*%
%TO.N,Net-(D1-A)*%
X125095000Y-132080000D03*
%TO.P,V2,4*%
%TO.N,Net-(R1-Pad2)*%
X127635000Y-132080000D03*
%TD*%
D13*
%TO.P,SW3,1*%
%TO.N,Net-(DC_IN1-PadPIN)*%
X149860100Y-91440000D03*
D14*
%TO.P,SW3,2*%
%TO.N,Net-(DC_IN1-PadSLEEVE)*%
X147320100Y-91440000D03*
%TO.P,SW3,3*%
%TO.N,Net-(D1-A)*%
X147320100Y-99060000D03*
%TO.P,SW3,4*%
%TO.N,Net-(R1-Pad2)*%
X149860100Y-99060000D03*
%TD*%
D15*
%TO.P,DC_IN1,PIN*%
%TO.N,Net-(DC_IN1-PadPIN)*%
X148585100Y-83185000D03*
D16*
%TO.P,DC_IN1,SHUNT*%
%TO.N,N/C*%
X153385100Y-80185000D03*
%TO.N,unconnected-(DC_IN1-PadSHUNT)*%
X143785100Y-80185000D03*
D17*
%TO.P,DC_IN1,SLEEVE*%
%TO.N,Net-(DC_IN1-PadSLEEVE)*%
X148585100Y-76935000D03*
%TD*%
D11*
%TO.P,PINOUT4,1*%
%TO.N,Net-(PINOUT2-Pad1)*%
X152400000Y-127000000D03*
D12*
%TO.P,PINOUT4,2*%
%TO.N,/Net-(PINOUT2-Pad2)*%
X152400000Y-129540000D03*
%TO.P,PINOUT4,3*%
%TO.N,/Net-(PINOUT2-Pad3)*%
X152400000Y-132080000D03*
%TD*%
D13*
%TO.P,SW1,1*%
%TO.N,Net-(AUDIO_1-PadS)*%
X134098500Y-102052500D03*
D14*
%TO.P,SW1,2*%
%TO.N,Net-(AUDIO_1-PadR)*%
X131558500Y-102052500D03*
%TO.P,SW1,3*%
%TO.N,Net-(AUDIO_1-PadT)*%
X129018500Y-102052500D03*
%TO.P,SW1,4*%
%TO.N,Net-(PINOUT1-Pad3)*%
X129018500Y-109672500D03*
%TO.P,SW1,5*%
%TO.N,Net-(PINOUT1-Pad2)*%
X131558500Y-109672500D03*
%TO.P,SW1,6*%
%TO.N,Net-(PINOUT1-Pad1)*%
X134098500Y-109672500D03*
%TD*%
D18*
%TO.P,AUDIO_2,R*%
%TO.N,Net-(AUDIO_2-PadR)*%
X157748500Y-82545000D03*
%TO.P,AUDIO_2,RN*%
%TO.N,unconnected-(AUDIO_2-PadRN)*%
X173978500Y-82545000D03*
%TO.P,AUDIO_2,S*%
%TO.N,Net-(AUDIO_2-PadS)*%
X157748500Y-76195000D03*
%TO.P,AUDIO_2,SN*%
%TO.N,unconnected-(AUDIO_2-PadSN)*%
X173978500Y-76195000D03*
%TO.P,AUDIO_2,T*%
%TO.N,Net-(AUDIO_2-PadT)*%
X157748500Y-88895000D03*
%TO.P,AUDIO_2,TN*%
%TO.N,unconnected-(AUDIO_2-PadTN)*%
X173978500Y-88895000D03*
%TD*%
D11*
%TO.P,PINOUT1,1*%
%TO.N,Net-(PINOUT1-Pad1)*%
X134113500Y-118745000D03*
D12*
%TO.P,PINOUT1,2*%
%TO.N,Net-(PINOUT1-Pad2)*%
X131573500Y-118745000D03*
%TO.P,PINOUT1,3*%
%TO.N,Net-(PINOUT1-Pad3)*%
X129033500Y-118745000D03*
%TD*%
D11*
%TO.P,V1,1*%
%TO.N,Net-(R1-Pad2)*%
X149860000Y-118745000D03*
D12*
%TO.P,V1,2*%
%TO.N,Net-(D1-A)*%
X147320000Y-118745000D03*
%TD*%
D18*
%TO.P,AUDIO_1,R*%
%TO.N,Net-(AUDIO_1-PadR)*%
X123458500Y-82545000D03*
%TO.P,AUDIO_1,RN*%
%TO.N,unconnected-(AUDIO_1-PadRN)*%
X139688500Y-82545000D03*
%TO.P,AUDIO_1,S*%
%TO.N,Net-(AUDIO_1-PadS)*%
X123458500Y-76195000D03*
%TO.P,AUDIO_1,SN*%
%TO.N,unconnected-(AUDIO_1-PadSN)*%
X139688500Y-76195000D03*
%TO.P,AUDIO_1,T*%
%TO.N,Net-(AUDIO_1-PadT)*%
X123458500Y-88895000D03*
%TO.P,AUDIO_1,TN*%
%TO.N,unconnected-(AUDIO_1-PadTN)*%
X139688500Y-88895000D03*
%TD*%
D11*
%TO.P,V3,1*%
%TO.N,Net-(D1-A)*%
X169545000Y-129540000D03*
D12*
%TO.P,V3,2*%
%TO.N,Net-(R1-Pad2)*%
X172085000Y-129540000D03*
%TO.P,V3,3*%
%TO.N,Net-(D1-A)*%
X169545000Y-132080000D03*
%TO.P,V3,4*%
%TO.N,Net-(R1-Pad2)*%
X172085000Y-132080000D03*
%TD*%
D11*
%TO.P,PINOUT2,1*%
%TO.N,Net-(PINOUT2-Pad1)*%
X168403500Y-118745000D03*
D12*
%TO.P,PINOUT2,2*%
%TO.N,/Net-(PINOUT2-Pad2)*%
X165863500Y-118745000D03*
%TO.P,PINOUT2,3*%
%TO.N,/Net-(PINOUT2-Pad3)*%
X163323500Y-118745000D03*
%TD*%
D13*
%TO.P,SW2,1*%
%TO.N,Net-(AUDIO_2-PadS)*%
X168388500Y-102052500D03*
D14*
%TO.P,SW2,2*%
%TO.N,Net-(AUDIO_2-PadR)*%
X165848500Y-102052500D03*
%TO.P,SW2,3*%
%TO.N,Net-(AUDIO_2-PadT)*%
X163308500Y-102052500D03*
%TO.P,SW2,4*%
%TO.N,/Net-(PINOUT2-Pad3)*%
X163308500Y-109672500D03*
%TO.P,SW2,5*%
%TO.N,/Net-(PINOUT2-Pad2)*%
X165848500Y-109672500D03*
%TO.P,SW2,6*%
%TO.N,Net-(PINOUT2-Pad1)*%
X168388500Y-109672500D03*
%TD*%
D19*
%TO.P,D1,1,K_1*%
%TO.N,Net-(D1-K)*%
X143535000Y-109327900D03*
D20*
%TO.P,D1,2,A_2*%
%TO.N,Net-(D1-A)*%
X140995000Y-109327900D03*
%TD*%
D19*
%TO.P,D2,1,K_1*%
%TO.N,Net-(D1-A)*%
X154200500Y-109327900D03*
D20*
%TO.P,D2,2,A_2*%
%TO.N,Net-(D1-K)*%
X156740500Y-109327900D03*
%TD*%
D11*
%TO.P,PINOUT3,1*%
%TO.N,Net-(PINOUT1-Pad1)*%
X144780000Y-127000000D03*
D12*
%TO.P,PINOUT3,2*%
%TO.N,Net-(PINOUT1-Pad2)*%
X144780000Y-129540000D03*
%TO.P,PINOUT3,3*%
%TO.N,Net-(PINOUT1-Pad3)*%
X144780000Y-132080000D03*
%TD*%
%TO.N,Net-(D1-K)*%
D21*
X151660500Y-104247900D02*
X156740500Y-109327900D01*
X148615000Y-104247900D02*
X151660500Y-104247900D01*
X143535000Y-109327900D02*
X148615000Y-104247900D01*
%TO.N,Net-(R1-Pad2)*%
X149860000Y-118745000D02*
X148708300Y-117593300D01*
X172085000Y-129540000D02*
X172085000Y-126435000D01*
X172085000Y-129540000D02*
X172085000Y-132080000D01*
X151011700Y-118745000D02*
X149860000Y-118745000D01*
X152163400Y-119896700D02*
X151011700Y-118745000D01*
X130303500Y-123568000D02*
X127635000Y-126236500D01*
X127635000Y-126236500D02*
X127635000Y-129540000D01*
X172085000Y-126435000D02*
X165546700Y-119896700D01*
X131012600Y-117593300D02*
X130303500Y-118302400D01*
X127635000Y-129540000D02*
X127635000Y-132080000D01*
X148708300Y-117593300D02*
X131012600Y-117593300D01*
X130303500Y-118302400D02*
X130303500Y-123568000D01*
X165546700Y-119896700D02*
X152163400Y-119896700D01*
%TO.N,Net-(D1-A)*%
X125095000Y-129540000D02*
X125095000Y-121040400D01*
X151797100Y-110529600D02*
X152998800Y-109327900D01*
X125095000Y-121040400D02*
X136807500Y-109327900D01*
X147320000Y-118745000D02*
X152891100Y-124316100D01*
X140995000Y-109327900D02*
X142196700Y-110529600D01*
X169545000Y-125730000D02*
X169545000Y-129540000D01*
X136807500Y-109327900D02*
X140995000Y-109327900D01*
X154200500Y-109327900D02*
X152998800Y-109327900D01*
X142196700Y-110529600D02*
X151797100Y-110529600D01*
X168131100Y-124316100D02*
X169545000Y-125730000D01*
X125095000Y-129540000D02*
X125095000Y-132080000D01*
X152891100Y-124316100D02*
X168131100Y-124316100D01*
X169545000Y-129540000D02*
X169545000Y-132080000D01*
%TO.N,Net-(PINOUT1-Pad2)*%
X131573500Y-118745000D02*
X136969800Y-124141300D01*
X136969800Y-124141300D02*
X142391300Y-124141300D01*
X142391300Y-124141300D02*
X142889200Y-124639200D01*
X142889200Y-127649200D02*
X144780000Y-129540000D01*
X142889200Y-124639200D02*
X142889200Y-127649200D01*
%TO.N,Net-(PINOUT1-Pad1)*%
X140595000Y-118745000D02*
X144780000Y-122930000D01*
X144780000Y-122930000D02*
X144780000Y-127000000D01*
X134113500Y-118745000D02*
X140595000Y-118745000D01*
%TD*%
M02*
